<svg width="205" height="256" viewBox="0 0 205 256" fill="none" xmlns="http://www.w3.org/2000/svg">
<rect width="205" height="256" fill="white"/>
<g clip-path="url(#clip0_479_563)">
<path d="M86.0894 70.7768C90.1219 70.0424 94.1915 69.5738 98.2759 69.3734C100.924 69.2884 103.578 69.3447 106.229 69.4003C113.028 69.5277 119.801 70.3532 126.458 71.866C127.437 75.6865 128.418 79.5063 129.4 83.3253C129.832 82.8405 130.364 82.4748 130.952 82.2585C131.541 82.0423 132.168 81.9817 132.782 82.082C133.334 82.167 133.862 82.3856 134.327 82.7217C134.792 83.0578 135.181 83.5028 135.467 84.0241C135.799 84.7438 135.987 85.5314 136.02 86.3356C136.262 89.4806 135.703 92.6374 134.407 95.4606C133.795 96.8876 132.908 98.1543 131.806 99.1743C131.358 99.6465 130.789 99.9586 130.174 100.069C129.559 100.179 128.928 100.083 128.364 99.7916C127.941 101.169 127.39 102.407 127.208 103.008C126.353 105.529 121.765 114.157 115.882 117.977C115.975 119.211 116.127 120.433 116.321 121.661C116.631 123.595 116.536 125.32 119.006 126.292C119.049 126.308 119.574 126.575 120.328 126.96C116.508 131.298 110.18 133.519 102.389 133.519C95.2611 133.519 88.5125 130.559 84.9102 126.994C85.7186 126.584 86.2775 126.306 86.3206 126.291C88.7911 125.32 88.692 123.594 89.0045 121.66C89.2255 120.348 89.3821 119.024 89.474 117.694C87.1444 116.013 85.0603 113.961 83.2912 111.607C80.7392 108.256 78.8059 104.402 77.5973 100.254L77.2616 100.353C75.8167 100.776 74.7135 99.9375 73.8339 99.1743C72.7312 98.1544 71.8439 96.8876 71.2324 95.4606C69.9356 92.6374 69.3774 89.4806 69.6188 86.3356C69.6519 85.5314 69.8403 84.7438 70.1718 84.0241C70.4577 83.5028 70.8473 83.0578 71.3121 82.7217C71.7768 82.3856 72.3048 82.167 72.8573 82.082C73.4223 81.9921 73.9985 82.0363 74.5462 82.2115C75.094 82.3868 75.6004 82.689 76.0306 83.0973L78.8062 72.288C80.956 71.7558 83.4788 71.2311 86.0894 70.7768Z" fill="white"/>
<path d="M77.6255 129.54C78.4743 129.175 79.2924 128.812 80.062 128.456L84.387 126.45C87.8314 130.253 94.9012 133.52 102.388 133.52C110.456 133.52 116.955 131.141 120.724 126.492L124.958 128.455C129.119 130.383 134.697 132.476 138.869 134.329C142.442 136.081 144.549 137.846 147.254 140.408C149.76 142.876 151.91 145.742 153.63 148.908C155.449 152.281 156.812 155.922 157.678 159.718C160.782 172.963 162.603 186.526 163.11 200.184C163.342 207.06 161.957 214.957 156.438 218.316C153.917 219.849 150.864 219.909 148.069 218.995H145.866C136.394 218.995 67.9892 219.005 59.6356 219.009C59.6356 219.009 58.6197 219.009 56.8989 219.013C54.1185 219.908 51.0869 219.84 48.5814 218.316C43.0626 214.957 41.6776 207.061 41.9093 200.185C42.4165 186.527 44.2373 172.964 47.3418 159.718C48.2071 155.922 49.5702 152.282 51.3893 148.908C53.1096 145.742 55.259 142.877 57.7649 140.408C60.4704 137.846 62.5777 136.082 66.1509 134.329C69.5516 132.82 73.8857 131.151 77.6255 129.54Z" fill="#F54749" fill-opacity="0.6"/>
<path d="M145.867 217.589H134.442H114.906L92.5266 217.592L72.5319 217.596C68.465 217.596 64.3978 217.596 60.3303 217.596H59.6366C57.9724 217.596 57.9697 220.41 59.6366 220.41C63.2698 220.41 66.9028 220.41 70.5356 220.41L89.8001 220.406L112.166 220.403H132.402H145.101H145.869C147.534 220.403 147.537 217.589 145.869 217.589H145.867Z" fill="#211715"/>
<path d="M126.36 81.0831C119.364 80.1305 110.88 79.1796 102.744 79.1995C93.9446 79.2207 86.3784 80.012 76.4624 81.416L77.6594 76.7539C86.9949 75.4548 94.2992 74.7255 102.744 74.7021C111.415 74.6816 120.483 75.7626 127.718 76.7744C128.118 78.3286 128.518 79.8827 128.918 81.4365C128.091 81.3213 127.239 81.2034 126.36 81.0831Z" fill="#A0A0A0"/>
<path d="M72.8935 50.2745C71.0529 51.6666 69.5181 53.4842 68.3992 55.5973C66.7032 59.0958 66.8201 63.309 67.1634 67.2689C67.6329 72.6755 68.5507 78.3319 71.8377 82.4097C72.1621 82.2501 72.5053 82.1398 72.8574 82.082C73.4223 81.9921 73.9985 82.0363 74.5462 82.2115C75.094 82.3868 75.6004 82.689 76.0306 83.0973C76.9555 79.4944 77.8794 75.8909 78.8024 72.2869C84.4467 70.8887 92.6672 69.5528 98.276 69.3734C100.924 69.2884 103.578 69.3447 106.229 69.4003C113.028 69.5277 119.801 70.3532 126.458 71.866C127.437 75.6865 128.418 79.5063 129.4 83.3253C129.832 82.8405 130.364 82.4748 130.952 82.2585C131.541 82.0423 132.168 81.9817 132.782 82.082C133.025 82.1213 133.263 82.1869 133.494 82.2778C136.695 78.21 137.599 72.6175 138.063 67.2706C138.407 63.3107 138.524 59.0976 136.827 55.5991C135.309 52.4687 132.557 50.3647 129.894 48.4062C127.03 46.3001 124.152 44.2196 121.259 42.1647C119.632 40.9452 117.919 39.8671 116.136 38.9405C111.919 36.8882 106.879 36.4069 102.613 36.4069C98.616 36.4069 93.3075 36.8864 89.0903 38.9382C87.3073 39.8648 85.5942 40.9429 83.9671 42.1624C81.0741 44.2173 78.1957 46.2978 75.3322 48.4038C74.5151 49.0053 73.6895 49.6202 72.8935 50.2745Z" fill="#F54749" fill-opacity="0.6"/>
<path d="M77.8302 73.9834C83.6172 72.442 89.5119 71.4261 95.4536 70.9462C98.8634 70.6672 102.283 70.7246 105.699 70.7955C109.228 70.8688 112.75 71.0887 116.262 71.5037C120.173 71.9515 124.053 72.6726 127.879 73.6627C129.496 74.0872 130.187 71.3765 128.567 70.9497C121.553 69.1696 114.388 68.1873 107.188 68.0186C103.609 67.909 100.008 67.8205 96.4323 68.0603C93.2897 68.2713 90.1574 68.694 87.0445 69.2016C83.7219 69.7439 80.4069 70.3963 77.1441 71.271C75.5273 71.7042 76.2128 74.4189 77.8318 73.9846L77.8302 73.9834Z" fill="#211715"/>
<path d="M72.4504 81.0367C70.0694 77.6648 69.1268 73.4681 68.659 69.3171C68.1955 65.1995 67.6404 60.3814 69.4135 56.527C71.1656 52.7166 74.8353 50.4527 77.9708 48.1652C79.9581 46.7157 81.9521 45.2781 83.9531 43.8525C85.7582 42.4827 87.6571 41.2651 89.633 40.2103C93.1571 38.4675 97.2029 37.9645 101.034 37.8408C104.968 37.6176 108.91 38.0433 112.726 39.1035C117.003 40.409 120.615 43.3647 124.271 45.9992C126.201 47.3914 128.133 48.7837 130.042 50.2123C131.609 51.3182 133.046 52.6288 134.32 54.1148C137.031 57.4562 137.162 61.9249 136.859 66.1492C136.564 70.2621 136.074 74.6054 134.341 78.3331C133.898 79.2854 133.374 80.1905 132.776 81.0367C132.604 81.3595 132.557 81.7426 132.644 82.103C132.731 82.4635 132.945 82.7721 133.24 82.9619C133.538 83.1409 133.888 83.1884 134.217 83.0944C134.547 83.0004 134.831 82.7723 135.01 82.4571C137.623 78.7528 138.597 74.1018 139.127 69.5604C139.666 64.9258 140.051 59.9283 138.241 55.5533C136.463 51.2605 132.567 48.6653 129.114 46.1405C127.018 44.6073 124.914 43.088 122.802 41.5826C120.895 40.1258 118.884 38.8365 116.789 37.7271C112.723 35.7468 108.226 35.1126 103.807 35.0147C99.6508 34.831 95.493 35.3332 91.4751 36.5042C86.9431 37.944 83.0924 41.0838 79.2071 43.8906C77.2131 45.3285 75.2104 46.7531 73.2583 48.2544C71.5464 49.4832 70.0004 50.9658 68.6649 52.6592C65.8085 56.5282 65.4377 61.3657 65.781 66.1504C66.1103 70.7469 66.6908 75.4759 68.6019 79.6486C69.0565 80.6395 69.5979 81.5805 70.2187 82.4583C70.3993 82.7714 70.6828 82.9979 71.0115 83.0917C71.3402 83.1854 71.6894 83.1394 71.988 82.963C72.2826 82.773 72.4965 82.4644 72.5833 82.1041C72.6702 81.7437 72.623 81.3607 72.4521 81.0379L72.4504 81.0367Z" fill="#211715"/>
<path d="M81.9182 130.044C83.2788 129.363 84.6382 128.679 85.9963 127.992C86.3073 127.836 86.6463 127.699 86.9449 127.518C86.3316 127.895 86.9821 127.513 87.1335 127.443C87.327 127.354 87.5205 127.263 87.7059 127.155C88.0369 126.958 88.3468 126.721 88.6296 126.45C89.4781 125.542 90.0019 124.336 90.1074 123.046C90.3591 121.288 90.6393 119.529 90.7638 117.752C90.7609 117.38 90.6236 117.024 90.3817 116.761C90.1398 116.498 89.8125 116.348 89.4704 116.345C89.1293 116.352 88.8041 116.503 88.5629 116.765C88.3217 117.027 88.1834 117.381 88.1769 117.752C88.0691 119.282 87.8287 120.784 87.6126 122.298C87.552 122.812 87.4423 123.317 87.2855 123.805C87.389 123.506 87.2699 123.824 87.2364 123.89C87.2165 123.929 87.0096 124.267 87.0969 124.144C87.1842 124.02 86.9228 124.338 86.8904 124.372C86.7088 124.563 87.0042 124.318 86.7584 124.493C86.0213 124.946 85.2558 125.342 84.4674 125.678C83.1829 126.325 81.8981 126.971 80.6129 127.617C80.3186 127.807 80.105 128.116 80.0182 128.476C79.9314 128.836 79.9783 129.219 80.1488 129.542C80.3273 129.858 80.6108 130.087 80.9404 130.181C81.27 130.275 81.6202 130.227 81.9182 130.047V130.044Z" fill="#211715"/>
<path d="M114.586 117.976C114.728 119.891 114.972 121.796 115.317 123.68C115.452 124.477 115.763 125.226 116.223 125.862C116.683 126.499 117.278 127.005 117.958 127.336C118.203 127.411 118.439 127.517 118.662 127.65C118.472 127.474 118.279 127.464 118.456 127.558C118.599 127.634 118.747 127.704 118.892 127.778C119.406 128.039 119.919 128.301 120.431 128.564C121.744 129.238 123.056 129.913 124.368 130.589C124.666 130.767 125.016 130.815 125.346 130.721C125.675 130.627 125.958 130.399 126.138 130.084C126.308 129.761 126.355 129.379 126.268 129.018C126.181 128.658 125.968 128.35 125.674 128.159C123.679 127.131 121.696 126.056 119.675 125.086C119.146 124.887 118.659 124.571 118.247 124.159C118.149 124.034 118.147 124.031 118.238 124.15C118.196 124.084 118.156 124.016 118.119 123.946C118.064 123.843 118.014 123.737 117.97 123.628C118.094 123.934 117.933 123.464 117.917 123.404C117.881 123.268 117.851 123.131 117.824 122.993C117.512 121.338 117.295 119.662 117.174 117.977C117.165 117.607 117.026 117.254 116.786 116.993C116.545 116.731 116.221 116.579 115.88 116.57C115.538 116.573 115.211 116.722 114.969 116.986C114.727 117.249 114.59 117.605 114.587 117.977L114.586 117.976Z" fill="#211715"/>
<path d="M83.0985 127.013C84.8641 129.019 86.9744 130.628 89.3098 131.75C92.0561 133.149 94.9778 134.097 97.9797 134.564C103.793 135.468 110.127 134.836 115.528 132.235C118.032 131.065 120.251 129.278 122.01 127.014C122.244 126.745 122.374 126.389 122.374 126.019C122.374 125.649 122.244 125.294 122.01 125.025C121.766 124.764 121.438 124.617 121.095 124.617C120.753 124.617 120.425 124.764 120.181 125.025C117.198 128.971 112.702 130.85 108.174 131.654C102.519 132.725 96.6999 132.047 91.3815 129.696C88.9471 128.66 86.7461 127.067 84.9282 125.025C83.8056 123.682 81.9802 125.677 83.099 127.014L83.0985 127.013Z" fill="#211715"/>
<path d="M127.562 97.5598C127.353 98.8042 126.999 100.014 126.508 101.161C126.358 101.558 126.196 101.951 126.055 102.352C126.011 102.478 125.968 102.603 125.928 102.73C125.808 103.1 125.993 102.585 125.909 102.788C125.393 104.006 124.808 105.187 124.156 106.324C122.291 109.736 119.913 112.782 117.119 115.335C115.622 116.714 113.856 117.703 111.954 118.227C110.333 118.634 111.019 121.349 112.642 120.941C116.606 119.945 119.907 116.8 122.498 113.531C124.728 110.801 126.595 107.744 128.043 104.449C128.96 102.263 129.858 99.9493 130.149 97.5598C130.147 97.1873 130.011 96.8305 129.768 96.567C129.526 96.3036 129.198 96.1548 128.856 96.1529C128.515 96.162 128.191 96.3131 127.95 96.575C127.709 96.8369 127.57 97.1896 127.562 97.5598Z" fill="#211715"/>
<path d="M75.3953 96.5386C76.9906 105.68 82.0831 114.594 89.5301 119.388C91.5742 120.731 93.8375 121.631 96.1958 122.04C96.5262 122.127 96.8747 122.074 97.1703 121.892C97.466 121.709 97.6866 121.411 97.7873 121.058C97.8757 120.698 97.8305 120.315 97.6614 119.991C97.4923 119.667 97.2129 119.428 96.8835 119.327C92.9336 118.689 89.4827 116.413 86.6306 113.443C83.5 110.194 81.0614 106.239 79.4864 101.855C78.7863 99.8904 78.2519 97.8606 77.8901 95.7906C77.7961 95.4327 77.5767 95.1292 77.279 94.9454C76.9814 94.7617 76.6293 94.7124 76.2986 94.8081C75.9718 94.914 75.6953 95.1532 75.527 95.4758C75.3586 95.7983 75.3115 96.1791 75.3953 96.5386Z" fill="#211715"/>
<path d="M130.53 84.0845C130.801 83.8438 131.114 83.6648 131.449 83.558C131.785 83.4513 132.137 83.4191 132.484 83.4633C132.832 83.5075 133.167 83.6272 133.471 83.8153C133.775 84.0033 134.041 84.256 134.253 84.5582C134.73 85.3085 134.75 86.3701 134.776 87.2448C134.813 88.2911 134.751 89.3388 134.59 90.3711C134.273 92.4329 133.579 94.4047 132.55 96.1699C131.809 97.4098 130.615 99.0424 129.108 98.591C127.5 98.1126 126.814 100.827 128.421 101.305C132.583 102.542 135.316 97.3318 136.451 93.7735C137.129 91.634 137.437 89.3762 137.359 87.1146C137.279 84.8958 136.793 82.8194 135.007 81.5286C134.04 80.8703 132.904 80.5697 131.768 80.6716C130.631 80.7736 129.556 81.2727 128.701 82.0943C128.461 82.3598 128.327 82.7172 128.327 83.0894C128.327 83.4616 128.461 83.819 128.701 84.0845C128.947 84.3412 129.275 84.4846 129.616 84.4846C129.957 84.4846 130.285 84.3412 130.53 84.0845Z" fill="#211715"/>
<path d="M76.9379 82.0943C76.1704 81.3609 75.225 80.8835 74.2147 80.7191C73.2043 80.5547 72.1719 80.7104 71.2407 81.1675C69.293 82.1294 68.5094 84.1343 68.3256 86.3356C67.9553 90.7544 69.1944 95.7197 71.9004 99.0951C73.3383 100.888 75.3561 102.274 77.6056 101.709C79.2267 101.302 78.5407 98.5886 76.9179 98.9961C75.4628 99.3613 74.0076 97.6202 73.2698 96.4613C71.6445 93.8135 70.8027 90.6882 70.8575 87.5051C70.7997 86.5576 70.9474 85.6086 71.2887 84.7346C72.0206 83.2855 73.9834 83.0486 75.1087 84.0845C75.3555 84.3395 75.6829 84.4817 76.0233 84.4817C76.3637 84.4817 76.6911 84.3395 76.9379 84.0845C77.1777 83.819 77.3121 83.4616 77.3121 83.0894C77.3121 82.7171 77.1777 82.3598 76.9379 82.0943Z" fill="#211715"/>
<path d="M88.893 85.3718C88.4785 86.8374 88.7485 90.2022 91.2977 90.4889C94.6666 90.4666 94.8461 86.3959 93.7122 84.4825C92.7836 82.915 90.0528 82.2637 88.893 85.3718Z" fill="#211715"/>
<path d="M116.939 85.3718C117.354 86.8374 117.084 90.2022 114.535 90.4889C111.166 90.4666 110.986 86.3959 112.12 84.4819C113.049 82.915 115.779 82.2637 116.939 85.3718Z" fill="#211715"/>
<path d="M124.307 129.67C128.636 131.669 133.084 133.335 137.457 135.218C141.43 136.999 145.009 139.68 147.955 143.082C151.158 146.733 153.633 151.065 155.222 155.807C156.031 158.352 156.698 160.949 157.219 163.582C157.824 166.383 158.373 169.197 158.865 172.023C159.842 177.632 160.592 183.279 161.114 188.965C161.37 191.779 161.567 194.599 161.707 197.424C161.865 199.783 161.875 202.151 161.737 204.511C161.444 208.362 160.457 212.529 157.893 215.356C154.874 218.687 150.33 218.862 146.594 216.867C142.584 214.706 139.161 211.446 136.663 207.407C133.922 203.018 131.699 198.271 130.047 193.279C129.65 192.096 129.282 190.902 128.933 189.703C128.432 187.983 125.934 188.718 126.438 190.451C127.927 195.729 129.968 200.804 132.521 205.575C133.82 208.054 135.335 210.392 137.044 212.557C138.634 214.449 140.446 216.106 142.434 217.484C146.434 220.323 151.34 222.205 156.008 220.09C159.983 218.289 162.408 214.151 163.51 209.772C164.709 205.01 164.467 200.076 164.174 195.206C163.813 189.177 163.179 183.167 162.31 177.201C161.447 171.286 160.342 165.421 158.993 159.605C157.831 154.368 155.743 149.428 152.844 145.06C150.04 140.891 146.496 137.375 142.421 134.722C140.288 133.447 138.061 132.367 135.763 131.494C133.429 130.527 131.085 129.592 128.757 128.609C127.705 128.164 126.655 127.714 125.617 127.234C125.318 127.058 124.969 127.012 124.641 127.106C124.312 127.2 124.028 127.426 123.848 127.739C123.677 128.062 123.63 128.445 123.716 128.805C123.803 129.165 124.017 129.474 124.312 129.664L124.307 129.67Z" fill="#211715"/>
<path d="M102.716 92.162C98.5381 92.162 91.6854 93.0378 86.9282 93.7911C86.0988 93.923 84.0459 94.1187 83.5048 94.7823C82.4986 96.0134 82.8807 98.6484 82.7503 100.144C82.6084 102.537 82.6739 104.939 82.946 107.319C83.2472 110.472 83.3938 113.833 85.3809 116.294C89.0543 120.84 97.5674 123.262 103.161 123.262C106.893 123.205 110.59 122.476 114.104 121.106C117.154 119.917 120.005 117.921 121.601 115.053C123.106 112.348 123.047 109.636 123.37 106.553C123.614 104.387 123.653 102.2 123.487 100.025C123.349 98.5335 123.699 96.0978 122.678 94.848C122.139 94.1856 120.445 93.92 119.614 93.7987C114.392 93.0354 107.358 92.162 102.716 92.162Z" fill="white"/>
<path d="M81.5408 96.8212C81.4254 98.2533 81.4497 99.7154 81.392 101.153C81.3436 102.681 81.3844 104.211 81.5144 105.733C81.7262 108.492 81.8226 111.482 82.7367 114.092C84.45 118.987 89.2579 121.489 93.5807 122.968C98.1941 124.574 103.084 125.011 107.876 124.247C113.093 123.404 118.843 121.462 122.14 116.685C124.048 113.921 124.291 110.632 124.588 107.314C124.784 105.513 124.881 103.701 124.88 101.887C124.864 101.077 124.775 100.275 124.748 99.4668C124.718 98.5582 124.748 97.6542 124.651 96.7497C124.641 96.38 124.501 96.0286 124.261 95.7671C124.02 95.5056 123.697 95.3538 123.357 95.3428C123.015 95.3449 122.687 95.4938 122.445 95.7572C122.203 96.0206 122.066 96.3772 122.064 96.7497C122.216 98.149 122.189 99.5899 122.262 100.999C122.331 102.493 122.302 103.992 122.175 105.482C121.972 108.013 121.952 110.842 121.025 113.214C119.084 118.174 113.663 120.126 109.214 121.138C104.799 122.144 100.229 122.012 95.8696 120.753C93.8237 120.202 91.8456 119.387 89.9774 118.325C88.3395 117.368 86.6419 116.135 85.6858 114.349C84.4058 111.958 84.3648 108.891 84.139 106.205C83.9913 104.611 83.9348 103.009 83.9698 101.408C84.0161 99.8889 84.0059 98.3331 84.1277 96.82C84.125 96.4478 83.9879 96.0916 83.7459 95.8284C83.5039 95.5652 83.1765 95.416 82.8342 95.4131C82.4933 95.4205 82.1682 95.571 81.9271 95.8333C81.686 96.0956 81.5475 96.4492 81.5408 96.82V96.8212Z" fill="#211715"/>
<path d="M104.349 90.789C103.417 90.7509 102.484 90.7375 101.552 90.7773C101.21 90.7832 100.882 90.9298 100.636 91.1877C100.454 91.3844 100.33 91.6354 100.28 91.9088C100.23 92.1822 100.256 92.4656 100.354 92.7231C100.452 92.9806 100.618 93.2006 100.831 93.3551C101.045 93.5097 101.295 93.5918 101.552 93.5912C102.484 93.5513 103.417 93.5648 104.349 93.6029C104.692 93.6029 105.021 93.4546 105.263 93.1908C105.506 92.9269 105.642 92.5691 105.642 92.196C105.642 91.8228 105.506 91.465 105.263 91.2011C105.021 90.9373 104.692 90.789 104.349 90.789Z" fill="#211715"/>
<path d="M96.9999 141.032C100.428 142.503 104.245 142.479 107.658 140.967C107.983 140.858 108.257 140.618 108.425 140.296C108.592 139.975 108.641 139.596 108.561 139.236C108.468 138.878 108.249 138.574 107.951 138.39C107.653 138.206 107.301 138.157 106.97 138.254C105.503 138.927 103.928 139.28 102.335 139.291C100.742 139.302 99.163 138.972 97.6876 138.319C97.3568 138.222 97.0042 138.271 96.7064 138.455C96.4085 138.639 96.1894 138.943 96.0966 139.302C96.0138 139.661 96.0615 140.042 96.2297 140.364C96.3979 140.686 96.6737 140.926 96.9999 141.032Z" fill="#211715"/>
<path d="M117.065 127.232C117.289 127.391 117.497 127.576 117.685 127.782C117.227 125.799 117.259 123.608 119.378 122.821C119.985 122.57 120.656 122.572 121.262 122.826C121.868 123.08 122.367 123.568 122.663 124.198C122.851 124.594 123.388 125.8 123.388 125.8L123.644 126.372C123.536 125.726 123.642 125.059 123.942 124.489C124.243 123.92 124.719 123.484 125.287 123.26C127.187 122.543 128.595 123.707 129.634 126.065C130.227 127.413 131.113 129.854 132.275 132.971C133.722 136.859 135.411 140.566 136.705 143.243C137.244 141.132 137.244 138.589 137.658 136.377C137.874 135.217 138.116 134 138.831 133.107C139.195 132.686 139.676 132.405 140.2 132.309C140.724 132.212 141.263 132.304 141.735 132.571C142.071 132.764 142.366 133.033 142.601 133.359C142.835 133.685 143.003 134.062 143.094 134.464C144.053 140.978 144.207 147.602 143.552 154.161C143.398 155.861 142.748 157.461 142.185 159.054C141.916 159.816 141.653 160.292 141.785 161.067C141.995 161.951 142.316 162.799 142.739 163.588C144.335 166.911 146.464 170.476 148.38 174.198C140.921 179.585 133.628 182.703 127.199 185.418C126.146 185.863 126.158 185.346 125.813 184.176C124.26 178.896 124.642 170.165 124.113 168.295C123.618 166.542 120.582 162.297 119.9 161.184C118.461 158.791 117.175 156.294 116.051 153.709C114.866 150.911 112.387 145.07 111.659 142.42C111.315 141.372 111.359 140.22 111.782 139.206C112.031 138.622 112.463 138.153 113.001 137.883C113.324 137.736 113.671 137.664 114.02 137.67C114.37 137.676 114.715 137.76 115.033 137.918L115.333 138.018C114.615 135.717 113.952 133.456 113.339 131.406C113.188 130.899 112.823 128.223 114.754 127.188C115.104 126.959 115.507 126.842 115.915 126.849C116.324 126.857 116.722 126.99 117.065 127.232Z" fill="white"/>
<path d="M138.141 142.747C138.464 140.929 138.528 139.077 138.817 137.256C138.976 136.259 139.148 134.072 140.257 133.731C140.463 133.67 140.68 133.667 140.887 133.724C141.095 133.781 141.285 133.896 141.439 134.057C141.963 134.593 141.942 135.469 142.038 136.193C142.271 137.946 142.427 139.711 142.526 141.48C142.726 145.231 142.675 148.992 142.376 152.735C142.226 154.517 141.832 156.265 141.207 157.92C140.86 158.694 140.613 159.518 140.475 160.366C140.459 161.348 140.678 162.318 141.111 163.18C142.637 166.814 144.758 170.174 146.595 173.628C147.428 175.195 149.664 173.78 148.828 172.207C147.028 168.821 144.992 165.531 143.445 161.993C143.279 161.718 143.169 161.408 143.124 161.083C143.078 160.759 143.096 160.427 143.178 160.111C143.508 159.114 143.91 158.146 144.227 157.144C144.76 155.162 145.046 153.112 145.078 151.047C145.33 147.006 145.279 142.95 144.926 138.918C144.837 137.937 144.726 136.959 144.602 135.983C144.561 134.963 144.342 133.961 143.956 133.031C143.545 132.247 142.916 131.625 142.16 131.255C141.404 130.884 140.559 130.785 139.747 130.97C137.748 131.443 136.891 133.563 136.498 135.534C136.071 137.666 136.028 139.857 135.646 141.996C135.564 142.355 135.612 142.735 135.78 143.057C135.948 143.379 136.224 143.619 136.549 143.726C136.88 143.822 137.232 143.773 137.53 143.589C137.827 143.405 138.047 143.102 138.14 142.744L138.141 142.747Z" fill="#211715"/>
<path d="M137.822 142.535C136.336 139.46 134.933 136.327 133.715 133.114C133.093 131.473 132.498 129.823 131.876 128.184C131.452 126.933 130.944 125.719 130.356 124.549C129.736 123.27 128.696 122.292 127.443 121.809C126.81 121.619 126.144 121.595 125.501 121.737C124.858 121.88 124.254 122.186 123.74 122.63C123.176 123.128 122.753 123.789 122.518 124.537C122.284 125.285 122.248 126.09 122.414 126.859C122.638 127.728 122.91 128.582 123.228 129.416C123.52 130.304 123.814 131.192 124.11 132.078C125.311 135.67 126.586 139.23 127.99 142.731C128.165 143.052 128.449 143.284 128.78 143.379C129.111 143.473 129.464 143.422 129.76 143.236C130.05 143.041 130.26 142.733 130.346 142.374C130.432 142.016 130.389 141.635 130.224 141.311C129.146 138.625 128.157 135.902 127.22 133.155C126.712 131.663 126.216 130.165 125.722 128.668C125.48 127.934 125.211 127.202 124.998 126.458C124.913 126.237 124.88 125.996 124.901 125.757C124.922 125.519 124.996 125.289 125.118 125.089C125.312 124.82 125.576 124.622 125.876 124.521C126.176 124.42 126.497 124.42 126.796 124.522C127.658 124.89 128.18 125.999 128.568 126.889C129.63 129.328 130.459 131.887 131.417 134.374C132.673 137.635 134.077 140.823 135.588 143.952C136.362 145.556 138.596 144.135 137.822 142.532V142.535Z" fill="#211715"/>
<path d="M124.789 143.551C123.259 140.39 122.17 137.016 120.986 133.654C120.429 132.076 119.88 130.495 119.362 128.901C119.085 128.132 118.885 127.332 118.766 126.515C118.653 125.882 118.754 125.225 119.051 124.666C119.298 124.359 119.635 124.154 120.006 124.085C120.376 124.016 120.757 124.089 121.084 124.29C121.681 124.736 121.967 125.827 122.27 126.51C122.445 126.829 122.729 127.061 123.06 127.156C123.391 127.25 123.743 127.199 124.04 127.014C124.331 126.821 124.541 126.512 124.628 126.154C124.714 125.795 124.67 125.414 124.504 125.09C124.173 124.182 123.723 123.331 123.166 122.564C122.692 122.028 122.099 121.635 121.444 121.421C120.788 121.208 120.094 121.183 119.427 121.348C118.847 121.475 118.299 121.737 117.82 122.116C117.341 122.495 116.943 122.982 116.654 123.543C116.175 124.649 116.033 125.892 116.248 127.092C116.488 128.928 117.204 130.694 117.798 132.42C118.548 134.598 119.323 136.765 120.122 138.922C120.839 140.981 121.65 143 122.553 144.971C123.329 146.573 125.563 145.153 124.787 143.551H124.789Z" fill="#211715"/>
<path d="M119.561 146.152C117.964 142.077 116.567 137.914 115.373 133.68C115.107 132.787 114.787 131.892 114.572 130.983C114.556 130.915 114.546 130.846 114.529 130.778C114.475 130.552 114.537 131.083 114.52 130.706C114.502 130.424 114.502 130.14 114.52 129.858C114.555 129.434 114.459 130.076 114.554 129.646C114.584 129.494 114.623 129.344 114.673 129.199C114.773 128.968 114.917 128.763 115.094 128.596C115.319 128.383 115.61 128.272 115.907 128.285C116.205 128.298 116.486 128.434 116.694 128.666C116.991 128.852 117.343 128.903 117.675 128.809C118.006 128.715 118.29 128.482 118.464 128.162C118.629 127.837 118.673 127.456 118.587 127.098C118.5 126.739 118.29 126.431 118 126.236C116.157 124.723 113.423 125.616 112.421 127.819C111.72 129.36 111.859 130.985 112.328 132.565C113.749 137.66 115.418 142.67 117.33 147.572C117.505 147.892 117.788 148.125 118.12 148.219C118.451 148.313 118.803 148.262 119.1 148.076C119.39 147.882 119.6 147.574 119.686 147.215C119.772 146.857 119.729 146.476 119.564 146.152H119.561Z" fill="#211715"/>
<path d="M115.375 136.561C114.609 136.226 113.763 136.178 112.97 136.426C112.177 136.673 111.482 137.201 110.997 137.927C110.552 138.653 110.27 139.483 110.174 140.349C110.078 141.216 110.17 142.095 110.444 142.915C111.218 145.426 112.136 147.882 113.193 150.268C114.288 152.933 115.386 155.602 116.696 158.15C117.787 160.228 118.983 162.237 120.28 164.17C120.955 165.195 121.624 166.228 122.221 167.31C122.459 167.719 122.669 168.148 122.849 168.592C122.736 168.293 122.874 168.71 122.895 168.799C122.934 168.965 122.956 169.135 122.981 169.305C122.921 168.886 122.997 169.503 123.004 169.588C123.023 169.805 123.038 170.022 123.052 170.24C123.089 170.811 123.115 171.383 123.141 171.954C123.2 173.26 123.254 174.565 123.334 175.87C123.43 178.744 123.825 181.597 124.512 184.375C124.904 185.782 125.421 187.272 127.073 186.921C127.691 186.741 128.293 186.502 128.872 186.207C129.553 185.916 130.232 185.621 130.912 185.322C137.87 182.357 144.526 178.612 150.773 174.148C152.146 173.142 150.853 170.703 149.467 171.719C144.236 175.501 138.691 178.741 132.905 181.396C131.661 181.977 130.407 182.532 129.15 183.078C128.575 183.327 127.998 183.575 127.42 183.819C127.217 183.905 126.644 184.021 126.521 184.177C126.616 184.06 128.084 184.815 127.182 184.443C127.31 184.496 127.307 184.828 127.259 184.514C127.176 183.976 126.947 183.441 126.819 182.911C126.667 182.276 126.543 181.633 126.438 180.987C126.223 179.671 126.096 178.341 125.997 177.009C125.827 174.709 125.787 172.402 125.629 170.102C125.61 169.349 125.513 168.601 125.342 167.871C125.02 166.907 124.581 165.995 124.035 165.159C123.04 163.478 121.884 161.919 120.877 160.249C119.411 157.806 118.114 155.249 116.997 152.598C115.928 150.077 114.855 147.552 113.894 144.977C113.382 143.823 112.999 142.606 112.753 141.353C112.57 139.927 113.305 138.679 114.687 139.273C115.018 139.37 115.37 139.32 115.668 139.136C115.966 138.953 116.185 138.648 116.278 138.29C116.361 137.931 116.314 137.55 116.146 137.228C115.977 136.905 115.701 136.666 115.375 136.56V136.561Z" fill="#211715"/>
<path d="M79.4094 127.241C74.9642 129.292 70.3697 130.934 65.9035 132.93C61.5869 134.967 57.7314 138.004 54.6068 141.831C51.2841 145.844 48.7366 150.543 47.1155 155.647C46.2848 158.404 45.5959 161.209 45.0519 164.05C44.4343 166.995 43.8783 169.954 43.3839 172.927C42.4019 178.835 41.6631 184.783 41.1672 190.773C40.7372 196.02 40.2446 201.403 40.929 206.644C41.4863 210.912 43.0034 215.396 46.1616 218.196C50.0253 221.62 55.149 221.654 59.5397 219.4C63.9169 217.081 67.6568 213.551 70.3848 209.165C73.2941 204.544 75.6494 199.538 77.3938 194.269C77.8201 193.009 78.2151 191.735 78.588 190.455C79.0914 188.725 76.594 187.984 76.0933 189.707C74.6917 194.667 72.7794 199.44 70.3929 203.933C69.1978 206.255 67.8015 208.448 66.2231 210.482C64.7739 212.241 63.1132 213.781 61.2859 215.058C59.4563 216.477 57.3836 217.482 55.1905 218.013C53.1369 218.468 51.0017 218.128 49.1543 217.052C45.9363 215.059 44.3658 211.23 43.6636 207.431C42.7981 202.75 43.2421 197.851 43.5736 193.133C43.9739 187.446 44.6096 181.789 45.4809 176.161C46.3432 170.554 47.3861 164.948 48.7447 159.454C49.9152 154.57 51.9651 149.987 54.7755 145.971C57.4304 142.215 60.7569 139.082 64.5546 136.762C66.5753 135.635 68.667 134.665 70.8138 133.859C73.0774 132.93 75.3442 132.021 77.5942 131.059C78.6401 130.612 79.6805 130.15 80.7152 129.672C81.0099 129.482 81.2239 129.173 81.3107 128.813C81.3976 128.452 81.3504 128.069 81.1793 127.746C80.9999 127.432 80.7163 127.204 80.3869 127.11C80.0576 127.016 79.7077 127.063 79.4094 127.242V127.241Z" fill="#211715"/>
<path d="M87.9564 127.232C87.7323 127.391 87.5244 127.576 87.336 127.782C87.7947 125.799 87.7629 123.608 85.6438 122.821C85.0366 122.57 84.3657 122.572 83.7596 122.826C83.1535 123.08 82.655 123.568 82.3595 124.198C82.1708 124.594 81.633 125.8 81.633 125.8L81.3775 126.372C81.4856 125.726 81.3799 125.059 81.0793 124.489C80.7786 123.919 80.3024 123.484 79.7348 123.26C77.8345 122.543 76.4263 123.707 75.3883 126.065C74.7954 127.413 73.9089 129.854 72.7474 132.971C71.3004 136.859 69.6119 140.566 68.3168 143.242C67.7779 141.132 67.7779 138.589 67.364 136.377C67.1484 135.217 66.9064 134 66.1912 133.107C65.8271 132.686 65.3463 132.405 64.8222 132.309C64.298 132.212 63.759 132.304 63.2874 132.571C62.951 132.765 62.6559 133.033 62.4216 133.359C62.1873 133.686 62.019 134.062 61.9277 134.464C60.9684 140.978 60.8147 147.602 61.4706 154.161C61.6242 155.861 62.2742 157.461 62.8369 159.054C63.1063 159.816 63.3693 160.292 63.2373 161.067C63.0274 161.951 62.7063 162.799 62.2828 163.588C60.6876 166.911 58.0441 171.127 56.1287 174.852C63.5865 180.239 71.3936 182.708 77.8232 185.42C78.8763 185.865 78.865 185.349 79.2093 184.178C80.7626 178.898 80.3805 170.167 80.9092 168.297C81.405 166.545 84.4408 162.3 85.1226 161.186C86.562 158.793 87.8483 156.294 88.9723 153.709C90.1579 150.911 92.6371 145.07 93.3646 142.42C93.7089 141.372 93.6649 140.22 93.2417 139.206C92.9926 138.622 92.5605 138.153 92.0227 137.883C91.7 137.736 91.3529 137.664 91.0031 137.67C90.6534 137.676 90.3085 137.76 89.9903 137.918L89.6901 138.018C90.4085 135.717 91.072 133.456 91.6842 131.406C91.8356 130.899 92.2011 128.223 90.2695 127.188C89.919 126.959 89.5162 126.841 89.1071 126.849C88.698 126.857 88.2992 126.989 87.9564 127.232Z" fill="white"/>
<path d="M69.3749 141.998C69.0138 139.977 68.968 137.906 68.5907 135.887C68.2501 134.062 67.6476 132.033 65.9499 131.223C65.1367 130.848 64.2297 130.787 63.3805 131.052C62.5313 131.317 61.7915 131.891 61.2848 132.678C60.842 133.427 60.5806 134.286 60.5249 135.174C60.3735 136.285 60.2404 137.401 60.1331 138.515C59.7464 142.68 59.6829 146.872 59.9434 151.049C59.9788 153.204 60.2933 155.342 60.8774 157.402C61.177 158.315 61.5419 159.202 61.8437 160.113C62.1229 160.959 61.7268 161.685 61.3705 162.448C59.688 166.05 57.5392 169.371 55.6798 172.862C54.8434 174.432 57.0784 175.852 57.9132 174.283C59.4761 171.352 61.2158 168.532 62.7534 165.583C63.5004 164.15 64.4867 162.503 64.5616 160.817C64.5263 159.94 64.3179 159.082 63.9504 158.301C63.6195 157.376 63.2751 156.455 63.0283 155.497C62.547 153.632 62.5433 151.583 62.4586 149.657C62.374 147.743 62.3509 145.826 62.3972 143.912C62.4446 141.975 62.5659 140.043 62.761 138.114C62.8537 137.201 62.9654 136.29 63.0962 135.383C63.1916 134.718 63.3156 134.093 63.9413 133.787C65.4395 133.063 65.8723 135.461 66.0744 136.52C66.4662 138.576 66.5126 140.687 66.8828 142.748C66.9768 143.106 67.1962 143.409 67.4937 143.593C67.7912 143.776 68.1431 143.826 68.4738 143.73C68.8007 143.625 69.0774 143.385 69.2458 143.063C69.4142 142.74 69.4612 142.359 69.377 142L69.3749 141.998Z" fill="#211715"/>
<path d="M69.4334 143.955C70.7345 141.262 71.9616 138.525 73.074 135.734C74.1519 133.029 75.0805 130.257 76.174 127.561C76.5733 126.578 77.0034 125.408 77.8334 124.756C78.0919 124.563 78.3976 124.46 78.7109 124.458C79.0242 124.457 79.3306 124.559 79.5903 124.749C80.4586 125.41 80.0032 126.532 79.6809 127.513C79.185 129.018 78.6898 130.524 78.1848 132.026C77.1317 135.156 76.0215 138.26 74.7975 141.314C74.6351 141.639 74.5926 142.019 74.6788 142.377C74.7651 142.735 74.9735 143.043 75.2616 143.24C75.5583 143.425 75.9103 143.476 76.2413 143.382C76.5724 143.287 76.856 143.055 77.0309 142.735C78.2856 139.605 79.4421 136.434 80.5254 133.231C81.0988 131.534 81.6572 129.83 82.2182 128.13C82.783 126.415 82.9619 124.751 81.8409 123.241C81.4369 122.714 80.9263 122.297 80.3492 122.021C79.772 121.745 79.1439 121.618 78.5141 121.65C77.8817 121.699 77.2666 121.897 76.7113 122.23C76.1559 122.563 75.6735 123.022 75.2971 123.577C74.5443 124.713 73.9386 125.955 73.4971 127.27C72.9139 128.776 72.3577 130.294 71.7951 131.81C70.4359 135.471 68.8897 139.039 67.2017 142.534C66.4278 144.135 68.6595 145.559 69.4351 143.954L69.4334 143.955Z" fill="#211715"/>
<path d="M82.4651 144.971C83.287 143.274 83.9397 141.471 84.6069 139.698C85.4142 137.552 86.193 135.393 86.9432 133.222C88.1138 129.854 90.7945 123.848 86.5541 121.715C85.8549 121.336 85.0703 121.185 84.2941 121.278C83.5179 121.372 82.7828 121.707 82.1768 122.242C81.3614 122.988 80.9696 124.074 80.5153 125.091C80.3507 125.416 80.3071 125.796 80.3935 126.155C80.4798 126.513 80.6896 126.821 80.9793 127.016C81.2761 127.201 81.628 127.252 81.9589 127.158C82.2899 127.063 82.5735 126.831 82.7486 126.511C82.9888 125.827 83.2985 125.174 83.6718 124.564C83.8969 124.314 84.189 124.147 84.5065 124.088C84.8239 124.028 85.1505 124.08 85.4396 124.234C85.7287 124.389 85.9654 124.639 86.1161 124.948C86.2668 125.258 86.3237 125.612 86.2787 125.958C86.2395 126.835 86.0717 127.699 85.7818 128.519C84.6942 131.98 83.4466 135.395 82.1763 138.781C81.5759 140.383 80.9906 141.982 80.2312 143.553C79.4562 145.154 81.6864 146.577 82.4651 144.972V144.971Z" fill="#211715"/>
<path d="M87.6929 147.572C89.6046 142.67 91.2743 137.66 92.6948 132.565C93.1643 130.986 93.3033 129.361 92.6021 127.819C91.5997 125.614 88.8657 124.722 87.0225 126.236C86.7343 126.433 86.5258 126.741 86.4396 127.099C86.3533 127.457 86.3959 127.837 86.5585 128.161C86.7334 128.482 87.0171 128.714 87.3483 128.809C87.6795 128.903 88.0315 128.852 88.3283 128.666C88.5359 128.434 88.8177 128.297 89.1155 128.284C89.4133 128.27 89.7043 128.382 89.9285 128.596C90.261 128.921 90.4665 129.373 90.503 129.858C90.5178 130.121 90.5178 130.385 90.503 130.649C90.4976 130.723 90.4906 130.797 90.4825 130.872C90.5078 130.679 90.5121 130.633 90.496 130.736C90.4771 130.817 90.4652 130.901 90.4458 130.983C90.233 131.892 89.9107 132.788 89.6444 133.68C88.4513 137.914 87.0535 142.077 85.4569 146.152C85.2942 146.477 85.2516 146.857 85.3378 147.214C85.4241 147.572 85.6326 147.88 85.9209 148.076C86.2177 148.262 86.5698 148.313 86.901 148.219C87.2322 148.124 87.5159 147.892 87.6908 147.572H87.6929Z" fill="#211715"/>
<path d="M90.3338 139.274C91.5572 138.747 92.3467 139.661 92.2939 141.02C92.1631 142.09 91.8776 143.13 91.4478 144.102C90.5855 146.506 89.5998 148.861 88.6124 151.207C87.5415 153.806 86.3322 156.335 84.9907 158.78C84.0066 160.544 82.8598 162.17 81.7813 163.864C80.7692 165.456 79.7113 167.071 79.4849 169.03C79.2429 171.124 79.2478 173.254 79.1287 175.361C79.0457 177.967 78.719 180.558 78.1537 183.093C78.0858 183.364 78.0088 183.632 77.9333 183.9C77.8988 184.021 77.673 184.524 77.714 184.656C77.6563 184.471 78.0988 184.317 78.1219 184.304C78.5337 184.106 78.4992 184.255 78.3418 184.128C78.05 183.96 77.74 183.831 77.4192 183.746C76.1596 183.218 74.8958 182.709 73.6336 182.192C67.1561 179.536 60.8068 176.587 55.0375 172.369C53.6519 171.356 52.3557 173.793 53.7316 174.799C59.3479 178.906 65.5344 181.842 71.84 184.45C73.216 185.019 74.5967 185.577 75.9732 186.145C77.1152 186.614 78.6442 187.586 79.6951 186.393C80.0603 185.881 80.3109 185.283 80.427 184.648C80.6075 184.01 80.7681 183.37 80.8975 182.717C81.1748 181.247 81.3769 179.76 81.5027 178.265C81.7452 175.643 81.7943 173.008 81.957 170.38C81.9824 169.963 82.0136 169.547 82.0578 169.133C82.0142 169.543 82.0751 169.033 82.0918 168.949C82.1249 168.787 82.1672 168.627 82.2184 168.47C82.1225 168.771 82.3359 168.206 82.3801 168.118C82.4879 167.892 82.6027 167.671 82.7213 167.453C83.0214 166.896 83.3464 166.356 83.6779 165.822C84.8096 163.997 86.0611 162.27 87.1185 160.391C88.5578 157.778 89.8502 155.072 90.9886 152.288C92.1872 149.432 93.4214 146.56 94.3721 143.592C94.9067 141.921 95.1406 140.13 94.3581 138.497C93.9348 137.595 93.2173 136.896 92.3458 136.538C91.4743 136.181 90.5115 136.189 89.6456 136.563C89.3204 136.671 89.0456 136.911 88.8777 137.233C88.7097 137.554 88.6613 137.934 88.7423 138.293C88.8355 138.652 89.0546 138.956 89.3524 139.14C89.6501 139.324 90.0025 139.373 90.3333 139.276L90.3338 139.274Z" fill="#211715"/>
<path d="M77.3857 72.5894L75.4396 80.1686C75.3944 80.3467 75.382 80.5328 75.4029 80.7161C75.4239 80.8995 75.4779 81.0766 75.5617 81.2373C75.6456 81.398 75.7578 81.5391 75.8918 81.6527C76.0258 81.7662 76.1791 81.8499 76.3429 81.8991C76.5066 81.9482 76.6777 81.9617 76.8463 81.9389C77.0149 81.9161 77.1777 81.8575 77.3254 81.7662C77.4731 81.675 77.6029 81.553 77.7073 81.4072C77.8117 81.2614 77.8887 81.0947 77.9338 80.9166L79.8783 73.3385C79.9695 72.9787 79.9255 72.5942 79.7561 72.2696C79.5867 71.945 79.3056 71.7069 78.9748 71.6077C78.644 71.5086 78.2905 71.5564 77.992 71.7407C77.6936 71.925 77.4748 72.2307 77.3836 72.5905L77.3857 72.5894Z" fill="#211715"/>
<path d="M125.241 72.3607L127.187 79.9393C127.278 80.2992 127.497 80.6049 127.795 80.7892C128.094 80.9735 128.447 81.0213 128.778 80.9221C129.109 80.8229 129.39 80.5849 129.559 80.2603C129.729 79.9357 129.773 79.5512 129.682 79.1913L127.736 71.6127C127.645 71.253 127.426 70.9473 127.128 70.7631C126.829 70.5788 126.476 70.531 126.145 70.6302C125.814 70.7294 125.533 70.9675 125.364 71.292C125.195 71.6165 125.151 72.001 125.242 72.3607H125.241Z" fill="#211715"/>
<path d="M76.7917 82.7766C83.4886 81.8352 90.2049 81.025 96.9562 80.7366C103.982 80.4687 111.016 80.7161 118.012 81.477C121.679 81.858 125.337 82.3387 128.99 82.8581C129.333 82.8561 129.661 82.7072 129.903 82.4438C130.145 82.1804 130.282 81.8237 130.284 81.4512C130.275 81.0809 130.136 80.7283 129.896 80.4664C129.655 80.2045 129.331 80.0533 128.99 80.0443C122.235 79.0835 115.456 78.2598 108.647 77.9339C101.947 77.6443 95.2354 77.8401 88.5584 78.5201C84.6242 78.9023 80.7066 79.4129 76.7917 79.9634C76.4521 79.975 76.1292 80.1269 75.8889 80.3883C75.6487 80.6497 75.509 81.0008 75.4983 81.3703C75.5001 81.7428 75.637 82.0995 75.8792 82.3629C76.1213 82.6263 76.4493 82.7746 76.7917 82.7766Z" fill="#211715"/>
<path d="M76.7917 78.2815C83.4886 77.3395 90.2049 76.5299 96.9562 76.2415C103.982 75.9731 111.016 76.2203 118.012 76.9813C121.679 77.3629 125.337 77.843 128.99 78.3624C129.333 78.3606 129.661 78.2118 129.903 77.9483C130.145 77.6849 130.282 77.3281 130.284 76.9555C130.275 76.5852 130.136 76.2326 129.896 75.9707C129.655 75.7088 129.331 75.5577 128.99 75.5486C122.235 74.5878 115.456 73.7641 108.647 73.4382C101.947 73.1489 95.2354 73.3447 88.5584 74.0244C84.6242 74.4072 80.7066 74.9178 76.7917 75.4683C76.452 75.4797 76.1291 75.6316 75.8888 75.893C75.6485 76.1544 75.5088 76.5057 75.4983 76.8752C75.5004 77.2476 75.6374 77.6041 75.8795 77.8675C76.1216 78.1308 76.4494 78.2792 76.7917 78.2815Z" fill="#211715"/>
<path d="M73.8043 82.2045L76.9226 82.7168C77.2595 82.8037 77.6141 82.7532 77.9191 82.575C78.0658 82.4817 78.1942 82.358 78.2969 82.2108C78.3997 82.0636 78.4747 81.8958 78.5178 81.717C78.5609 81.5382 78.5712 81.3519 78.5481 81.1688C78.525 80.9857 78.4689 80.8094 78.3831 80.6498C78.3007 80.4915 78.1897 80.3528 78.057 80.242C77.9242 80.1312 77.7723 80.0506 77.6103 80.005L74.4925 79.4938C74.1554 79.407 73.8007 79.4575 73.4955 79.6357C73.3488 79.7289 73.2204 79.8527 73.1177 79.9999C73.0149 80.1471 72.9399 80.3149 72.8968 80.4937C72.8537 80.6725 72.8434 80.8587 72.8665 81.0418C72.8896 81.2249 72.9457 81.4013 73.0315 81.5608C73.114 81.7191 73.225 81.8577 73.3577 81.9685C73.4905 82.0793 73.6424 82.1599 73.8043 82.2057V82.2045Z" fill="#211715"/>
<path d="M73.8044 77.8524L76.9227 78.3648C77.2597 78.4516 77.6142 78.4011 77.9192 78.2229C78.2154 78.0346 78.4306 77.7261 78.5177 77.3652C78.6047 77.0042 78.5563 76.6205 78.3832 76.2984C78.3008 76.1399 78.1899 76.0012 78.0571 75.8904C77.9243 75.7796 77.7724 75.6991 77.6104 75.6535L74.4926 75.1412C74.1556 75.0541 73.8009 75.1044 73.4956 75.2824C73.1996 75.4711 72.9847 75.7799 72.8981 76.141C72.8115 76.502 72.8603 76.8857 73.0337 77.2076C73.1163 77.3659 73.2273 77.5045 73.36 77.6153C73.4928 77.726 73.6446 77.8067 73.8066 77.8524H73.8044Z" fill="#211715"/>
<path d="M131.462 79.6416L128.348 80.1844C128.023 80.2816 127.745 80.513 127.575 80.8292C127.402 81.1514 127.353 81.5351 127.441 81.896C127.528 82.257 127.743 82.5655 128.039 82.7538L128.348 82.8956C128.573 82.9625 128.81 82.9625 129.035 82.8956L132.149 82.3534C132.474 82.2562 132.752 82.0248 132.922 81.7086C133.008 81.549 133.064 81.3727 133.087 81.1896C133.11 81.0065 133.1 80.8202 133.057 80.6414C133.014 80.4626 132.939 80.2948 132.836 80.1476C132.733 80.0004 132.605 79.8766 132.458 79.7834L132.149 79.6416C131.924 79.5747 131.687 79.5747 131.462 79.6416Z" fill="#211715"/>
<path d="M131.462 75.1218L128.348 75.6641C128.023 75.7613 127.745 75.9926 127.575 76.3089C127.489 76.4684 127.433 76.6448 127.41 76.8279C127.387 77.011 127.397 77.1973 127.44 77.376C127.483 77.5548 127.558 77.7226 127.661 77.8698C127.764 78.0171 127.892 78.1408 128.039 78.234L128.348 78.3759C128.573 78.4427 128.81 78.4427 129.035 78.3759L132.149 77.8331C132.474 77.7359 132.752 77.5045 132.922 77.1882C133.095 76.8661 133.144 76.4823 133.057 76.1214C132.97 75.7605 132.754 75.452 132.458 75.2637L132.149 75.1218C131.924 75.0543 131.687 75.0543 131.462 75.1218Z" fill="#211715"/>
<path d="M127.505 81.3521C126.969 83.7298 126.559 86.1392 126.049 88.5239C125.78 89.7825 125.495 91.0376 125.151 92.2757C124.914 93.1298 124.71 94.4201 124.131 94.9793C123.712 95.3832 122.94 95.4154 122.412 95.5386C121.657 95.7144 120.898 95.8735 120.135 96.0157C118.647 96.2932 117.15 96.4976 115.646 96.6289C114.144 96.7626 112.638 96.8312 111.132 96.8435C110.582 96.8981 110.027 96.8359 109.499 96.6606C109.406 96.6155 109.316 96.5634 109.23 96.5046C108.866 96.2772 109.278 96.5767 109.116 96.4243C108.865 96.1585 108.633 95.8722 108.422 95.5679C107.685 94.61 106.967 93.6361 106.266 92.6462C105.638 91.7534 105.061 90.6202 104.124 90.0797C101.68 88.6728 100.113 91.9867 98.8593 93.7049C98.4525 94.2629 98.0394 94.8159 97.6197 95.3639C97.3356 95.8134 96.9886 96.212 96.5914 96.5451C95.4569 97.1313 93.9096 96.8441 92.683 96.7901C89.6507 96.6623 86.6337 96.2573 83.6638 95.5796C83.0214 95.4324 82.0233 95.419 81.5964 94.7941C81.3747 94.4016 81.211 93.9738 81.1114 93.5261C80.6929 92.1956 80.3371 90.8429 80.0454 89.473C79.4434 86.7764 78.9896 84.0464 78.3833 81.3533C77.9872 79.5946 75.4919 80.3397 75.8885 82.1013C76.4479 84.5845 76.8737 87.1017 77.4121 89.5902C77.7021 90.9291 78.0125 92.2657 78.4005 93.5765C78.7519 94.763 79.1108 96.1512 79.9796 97.0164C81.1367 98.1695 82.9546 98.3119 84.4356 98.6074C86.0459 98.9292 87.6692 99.176 89.3006 99.3513C90.9379 99.5272 92.5811 99.6233 94.226 99.652C95.7259 99.6778 97.2414 99.6356 98.4529 98.547C99.3754 97.5834 100.204 96.5186 100.925 95.3697C101.536 94.5256 102.115 93.5231 102.779 92.7646C103.016 92.4943 102.986 92.5975 103.23 92.9135C103.474 93.2294 103.705 93.6017 103.941 93.9376C104.754 95.093 105.581 96.2362 106.437 97.3547C107.259 98.428 108.054 99.247 109.365 99.5237C110.982 99.8684 112.777 99.6444 114.413 99.5365C117.62 99.3256 120.806 98.8277 123.938 98.0481C124.77 97.8881 125.534 97.4449 126.119 96.7825C126.558 96.1809 126.892 95.4971 127.104 94.7647C127.562 93.4156 127.942 92.037 128.243 90.6366C128.89 87.8064 129.36 84.9321 129.998 82.1001C130.394 80.3415 127.9 79.5911 127.503 81.3521H127.505Z" fill="#211715"/>
</g>
<defs>
<clipPath id="clip0_479_563">
<rect width="171" height="186" fill="white" transform="translate(17 35)"/>
</clipPath>
</defs>
</svg>
