<svg width="256" height="288" viewBox="0 0 256 288" fill="none" xmlns="http://www.w3.org/2000/svg">
<g clip-path="url(#clip0_334_461)">
<path d="M103.432 55.3963C109.469 54.2592 115.562 53.5336 121.676 53.2233C125.641 53.0916 129.614 53.1788 133.582 53.265C143.762 53.4622 153.902 54.7404 163.867 57.0828C165.333 62.9985 166.801 68.913 168.271 74.8263C168.918 74.0755 169.715 73.5093 170.596 73.1744C171.476 72.8396 172.415 72.7459 173.334 72.9011C174.161 73.0328 174.952 73.3713 175.647 73.8916C176.343 74.412 176.926 75.1011 177.355 75.9082C177.851 77.0226 178.133 78.2421 178.182 79.4873C178.544 84.357 177.708 89.2449 175.767 93.6164C174.852 95.826 173.523 97.7873 171.873 99.3666C171.203 100.098 170.351 100.581 169.43 100.752C168.509 100.923 167.564 100.773 166.721 100.322C166.087 102.455 165.262 104.372 164.99 105.303C163.71 109.206 156.841 122.566 148.034 128.48C148.174 130.391 148.401 132.283 148.691 134.185C149.155 137.18 149.014 139.85 152.711 141.355C152.775 141.381 153.562 141.794 154.69 142.39C148.972 149.107 139.498 152.545 127.833 152.545C117.163 152.545 107.06 147.962 101.667 142.443C102.877 141.807 103.714 141.377 103.778 141.354C107.477 139.85 107.328 137.178 107.796 134.183C108.127 132.151 108.362 130.102 108.499 128.042C105.012 125.44 101.892 122.262 99.2432 118.617C95.4226 113.429 92.5282 107.461 90.7189 101.039L90.2163 101.191C88.0532 101.846 86.4016 100.548 85.0848 99.3666C83.434 97.7874 82.1056 95.826 81.1902 93.6164C79.2488 89.2449 78.4131 84.357 78.7745 79.4873C78.8241 78.2421 79.1061 77.0226 79.6024 75.9082C80.0304 75.1011 80.6137 74.412 81.3094 73.8916C82.0051 73.3713 82.7956 73.0328 83.6228 72.9011C84.4686 72.7619 85.3312 72.8303 86.1512 73.1017C86.9713 73.3731 87.7294 73.841 88.3735 74.4732L92.5287 57.7363C95.7471 56.9121 99.5239 56.0997 103.432 55.3963Z" fill="white"/>
<path d="M90.7609 146.385C92.0317 145.819 93.2564 145.258 94.4086 144.706L100.883 141.6C106.04 147.489 116.624 152.546 127.832 152.546C139.91 152.546 149.64 148.864 155.283 141.665L161.622 144.704C167.851 147.69 176.202 150.931 182.446 153.799C187.796 156.513 190.951 159.245 195.001 163.212C198.752 167.034 201.97 171.471 204.546 176.373C207.269 181.596 209.31 187.234 210.605 193.111C215.253 213.62 217.979 234.621 218.738 255.769C219.085 266.416 217.011 278.643 208.749 283.844C204.976 286.217 200.405 286.311 196.221 284.896H192.922C178.742 284.896 76.3347 284.911 63.8287 284.917C63.8287 284.917 62.3078 284.917 59.7316 284.923C55.5692 286.31 51.0307 286.204 47.2797 283.845C39.0177 278.644 36.9442 266.417 37.2911 255.77C38.0504 234.622 40.7762 213.621 45.424 193.112C46.7194 187.234 48.7601 181.597 51.4833 176.374C54.0588 171.472 57.2766 167.035 61.0282 163.213C65.0785 159.246 68.2332 156.514 73.5826 153.8C78.6737 151.463 85.1623 148.878 90.7609 146.385Z" fill="#F54749" fill-opacity="0.6"/>
<path d="M192.924 282.718H175.819H146.573L113.069 282.724L83.1355 282.729C77.0471 282.729 70.9582 282.729 64.8687 282.729H63.8303C61.3388 282.729 61.3348 287.086 63.8303 287.086C69.2695 287.086 74.7084 287.086 80.147 287.086L108.987 287.08L142.471 287.075H172.766H191.777H192.927C195.42 287.075 195.424 282.718 192.927 282.718H192.924Z" fill="#211715"/>
<path d="M163.72 71.3544C153.247 69.8794 140.545 68.4071 128.365 68.438C115.192 68.4707 103.865 69.6961 89.0198 71.87L90.8118 64.6511C104.788 62.6397 115.723 61.5105 128.365 61.4742C141.347 61.4424 154.922 63.1162 165.754 64.6829C166.353 67.0895 166.951 69.4958 167.55 71.9017C166.312 71.7232 165.035 71.5408 163.72 71.3544Z" fill="#A0A0A0"/>
<path d="M83.6769 23.6508C80.9214 25.8063 78.6238 28.6208 76.9487 31.8926C74.4096 37.3097 74.5847 43.8333 75.0986 49.9647C75.8014 58.3363 77.1754 67.0946 82.0963 73.4085C82.582 73.1614 83.0957 72.9906 83.6228 72.9011C84.4686 72.7619 85.3312 72.8304 86.1512 73.1018C86.9713 73.3731 87.7294 73.841 88.3735 74.4732C89.758 68.8946 91.1412 63.315 92.523 57.7345C100.973 55.5697 113.28 53.5011 121.676 53.2233C125.641 53.0917 129.614 53.1788 133.582 53.2651C143.762 53.4622 153.902 54.7405 163.867 57.0828C165.333 62.9985 166.801 68.913 168.271 74.8263C168.918 74.0756 169.715 73.5093 170.596 73.1745C171.476 72.8397 172.415 72.7459 173.334 72.9011C173.698 72.962 174.055 73.0636 174.401 73.2043C179.193 66.9058 180.546 58.2465 181.24 49.9674C181.755 43.836 181.93 37.3124 179.39 31.8953C177.117 27.0483 172.998 23.7906 169.011 20.758C164.724 17.4969 160.415 14.2756 156.084 11.0938C153.648 9.20548 151.083 7.53621 148.414 6.1015C142.101 2.92368 134.556 2.17847 128.17 2.17847C122.186 2.17847 114.238 2.92096 107.925 6.09787C105.255 7.53258 102.691 9.20185 100.255 11.0902C95.9239 14.2719 91.6148 17.4933 87.3278 20.7543C86.1047 21.6856 84.8686 22.6378 83.6769 23.6508Z" fill="#F54749" fill-opacity="0.6"/>
<path d="M91.0675 60.3614C99.7311 57.9746 108.556 56.4017 117.451 55.6586C122.556 55.2266 127.675 55.3155 132.789 55.4254C138.072 55.5388 143.346 55.8792 148.603 56.5219C154.458 57.2152 160.267 58.3318 165.994 59.8649C168.415 60.5221 169.45 56.3249 167.025 55.6641C156.524 52.9078 145.798 51.3868 135.018 51.1256C129.66 50.9559 124.27 50.8188 118.916 51.1901C114.212 51.5169 109.522 52.1713 104.862 52.9574C99.8878 53.797 94.925 54.8072 90.0404 56.1615C87.6199 56.8323 88.6462 61.0358 91.0699 60.3632L91.0675 60.3614Z" fill="#211715"/>
<path d="M83.0137 71.2825C79.4491 66.0615 78.0379 59.5633 77.3376 53.136C76.6437 46.7604 75.8127 39.3001 78.4672 33.332C81.0902 27.432 86.5839 23.9265 91.2781 20.3847C94.2532 18.1403 97.2385 15.9144 100.234 13.7069C102.936 11.5859 105.779 9.70058 108.737 8.06738C114.013 5.36881 120.07 4.59002 125.806 4.39849C131.695 4.05291 137.596 4.7121 143.309 6.35366C149.712 8.37508 155.12 12.9517 160.593 17.0308C163.483 19.1866 166.375 21.3423 169.232 23.5544C171.578 25.2667 173.729 27.296 175.637 29.5969C179.696 34.7707 179.891 41.69 179.438 48.2308C178.996 54.5992 178.263 61.3243 175.669 67.0963C175.005 68.5707 174.221 69.9722 173.325 71.2825C173.069 71.7822 172.998 72.3755 173.128 72.9335C173.258 73.4916 173.579 73.9695 174.02 74.2634C174.466 74.5406 174.99 74.6141 175.484 74.4686C175.977 74.3231 176.401 73.9698 176.67 73.4819C180.582 67.7462 182.041 60.5446 182.833 53.5127C183.64 46.3365 184.217 38.5984 181.507 31.8243C178.845 25.1773 173.012 21.159 167.844 17.2496C164.706 14.8757 161.555 12.5232 158.393 10.1923C155.538 7.93651 152.529 5.94023 149.392 4.2224C143.304 1.15623 136.573 0.174106 129.957 0.0225218C123.735 -0.261898 117.51 0.515737 111.495 2.32896C104.71 4.55825 98.9455 9.41984 93.129 13.7659C90.1437 15.9924 87.1455 18.1981 84.2231 20.5227C81.6603 22.4255 79.3458 24.7211 77.3465 27.3431C73.0703 33.3338 72.5152 40.8241 73.0291 48.2327C73.5221 55.3498 74.391 62.6722 77.2521 69.1331C77.9327 70.6675 78.7433 72.1244 79.6726 73.4837C79.943 73.9685 80.3674 74.3192 80.8595 74.4644C81.3516 74.6096 81.8744 74.5383 82.3214 74.2652C82.7624 73.971 83.0826 73.4931 83.2126 72.9352C83.3426 72.3772 83.272 71.7841 83.0161 71.2843L83.0137 71.2825Z" fill="#211715"/>
<path d="M97.1874 147.165C99.2244 146.11 101.259 145.051 103.293 143.988C103.758 143.745 104.266 143.534 104.713 143.254C103.795 143.837 104.768 143.245 104.995 143.137C105.285 142.999 105.574 142.859 105.852 142.692C106.348 142.387 106.811 142.02 107.235 141.6C108.505 140.194 109.289 138.326 109.447 136.33C109.824 133.606 110.244 130.883 110.43 128.132C110.426 127.556 110.22 127.005 109.858 126.597C109.496 126.19 109.006 125.959 108.494 125.954C107.983 125.965 107.496 126.198 107.135 126.604C106.774 127.01 106.567 127.558 106.557 128.132C106.396 130.501 106.036 132.827 105.712 135.171C105.622 135.966 105.457 136.748 105.223 137.505C105.378 137.042 105.199 137.534 105.149 137.636C105.119 137.697 104.81 138.219 104.94 138.029C105.071 137.838 104.68 138.33 104.631 138.382C104.359 138.679 104.801 138.299 104.434 138.57C103.33 139.272 102.184 139.885 101.004 140.405C99.0808 141.407 97.1573 142.407 95.2332 143.407C94.7927 143.702 94.473 144.179 94.343 144.737C94.213 145.295 94.2833 145.888 94.5385 146.388C94.8057 146.877 95.2301 147.231 95.7236 147.376C96.217 147.522 96.7414 147.448 97.1874 147.169V147.165Z" fill="#211715"/>
<path d="M146.094 128.479C146.306 131.445 146.671 134.394 147.188 137.312C147.39 138.545 147.855 139.704 148.544 140.69C149.233 141.676 150.124 142.459 151.141 142.971C151.508 143.088 151.862 143.252 152.197 143.459C151.912 143.186 151.622 143.17 151.888 143.315C152.102 143.434 152.322 143.542 152.539 143.656C153.309 144.06 154.077 144.466 154.844 144.874C156.81 145.917 158.775 146.962 160.739 148.009C161.185 148.285 161.709 148.358 162.202 148.213C162.694 148.067 163.119 147.715 163.387 147.227C163.642 146.727 163.712 146.135 163.582 145.577C163.452 145.019 163.133 144.542 162.693 144.246C159.707 142.654 156.737 140.99 153.713 139.488C152.92 139.18 152.192 138.691 151.575 138.052C151.428 137.859 151.424 137.855 151.561 138.039C151.498 137.936 151.439 137.831 151.383 137.723C151.301 137.564 151.226 137.399 151.161 137.23C151.345 137.705 151.105 136.976 151.08 136.883C151.027 136.674 150.982 136.46 150.941 136.248C150.474 133.684 150.149 131.09 149.968 128.481C149.955 127.908 149.747 127.362 149.387 126.956C149.026 126.551 148.541 126.317 148.032 126.302C147.519 126.307 147.029 126.538 146.667 126.945C146.305 127.353 146.099 127.904 146.095 128.481L146.094 128.479Z" fill="#211715"/>
<path d="M98.9543 142.472C101.598 145.578 104.757 148.07 108.253 149.807C112.365 151.973 116.739 153.441 121.233 154.164C129.936 155.563 139.418 154.584 147.504 150.558C151.252 148.746 154.574 145.979 157.208 142.474C157.558 142.057 157.753 141.506 157.753 140.933C157.753 140.361 157.558 139.809 157.208 139.393C156.843 138.989 156.351 138.762 155.839 138.762C155.326 138.762 154.835 138.989 154.469 139.393C150.004 145.504 143.273 148.414 136.495 149.658C128.028 151.316 119.317 150.266 111.355 146.626C107.71 145.023 104.415 142.556 101.694 139.393C100.013 137.314 97.2802 140.402 98.9551 142.474L98.9543 142.472Z" fill="#211715"/>
<path d="M165.52 96.8668C165.207 98.7936 164.677 100.667 163.942 102.443C163.717 103.057 163.475 103.666 163.264 104.287C163.198 104.481 163.134 104.676 163.073 104.872C162.894 105.444 163.171 104.648 163.045 104.962C162.273 106.847 161.396 108.676 160.421 110.438C157.629 115.72 154.068 120.436 149.886 124.39C147.645 126.525 145 128.056 142.154 128.868C139.726 129.498 140.754 133.701 143.183 133.07C149.118 131.527 154.06 126.658 157.938 121.596C161.278 117.37 164.072 112.636 166.24 107.534C167.612 104.149 168.957 100.567 169.393 96.8668C169.39 96.2899 169.185 95.7375 168.823 95.3296C168.46 94.9217 167.969 94.6912 167.456 94.6884C166.947 94.7024 166.461 94.9364 166.101 95.342C165.74 95.7475 165.532 96.2935 165.52 96.8668Z" fill="#211715"/>
<path d="M87.4222 95.2856C89.8105 109.439 97.4343 123.242 108.583 130.665C111.643 132.744 115.032 134.139 118.562 134.772C119.057 134.907 119.578 134.825 120.021 134.542C120.464 134.259 120.794 133.798 120.945 133.251C121.077 132.693 121.009 132.1 120.756 131.599C120.503 131.097 120.085 130.728 119.592 130.57C113.678 129.583 108.512 126.058 104.242 121.46C99.5555 116.429 95.9048 110.305 93.5469 103.517C92.4987 100.475 91.6988 97.3325 91.1571 94.1274C91.0164 93.5731 90.6879 93.1032 90.2423 92.8187C89.7967 92.5342 89.2696 92.4578 88.7745 92.6061C88.2853 92.77 87.8713 93.1404 87.6193 93.6399C87.3673 94.1393 87.2966 94.729 87.4222 95.2856Z" fill="#211715"/>
<path d="M169.964 76.0018C170.369 75.6291 170.837 75.3519 171.34 75.1866C171.842 75.0214 172.369 74.9715 172.889 75.0399C173.409 75.1083 173.911 75.2937 174.366 75.5849C174.821 75.8761 175.22 76.2673 175.538 76.7352C176.252 77.897 176.281 79.5409 176.319 80.8951C176.376 82.5152 176.282 84.1375 176.041 85.7359C175.567 88.9283 174.528 91.9814 172.987 94.7147C171.878 96.6345 170.091 99.1624 167.835 98.4635C165.427 97.7228 164.4 101.925 166.805 102.665C173.036 104.581 177.129 96.5138 178.827 91.0041C179.843 87.6913 180.304 84.1954 180.186 80.6936C180.066 77.258 179.339 74.043 176.665 72.0443C175.219 71.025 173.517 70.5595 171.816 70.7174C170.115 70.8753 168.504 71.648 167.225 72.9202C166.866 73.3313 166.665 73.8846 166.665 74.461C166.665 75.0374 166.866 75.5907 167.225 76.0018C167.594 76.3993 168.084 76.6213 168.595 76.6213C169.105 76.6213 169.596 76.3993 169.964 76.0018Z" fill="#211715"/>
<path d="M89.7314 72.9202C88.5825 71.7846 87.1671 71.0454 85.6545 70.7909C84.142 70.5364 82.5963 70.7774 81.2023 71.4851C78.2864 72.9747 77.1133 76.079 76.8382 79.4873C76.2839 86.3295 78.1388 94.0176 82.1899 99.2441C84.3425 102.021 87.3633 104.166 90.7311 103.292C93.158 102.662 92.1309 98.4599 89.7015 99.0907C87.5231 99.6562 85.3446 96.9604 84.2401 95.1659C81.8068 91.0661 80.5466 86.227 80.6287 81.2982C80.5421 79.8311 80.7632 78.3617 81.2741 77.0084C82.3698 74.7646 85.3083 74.3979 86.993 76.0018C87.3625 76.3967 87.8526 76.6168 88.3622 76.6168C88.8718 76.6168 89.3619 76.3967 89.7314 76.0018C90.0905 75.5907 90.2917 75.0374 90.2917 74.461C90.2917 73.8846 90.0905 73.3313 89.7314 72.9202Z" fill="#211715"/>
<path d="M107.629 77.995C107.009 80.2642 107.413 85.4744 111.229 85.9182C116.273 85.8837 116.542 79.5807 114.844 76.618C113.454 74.1909 109.366 73.1824 107.629 77.995Z" fill="#211715"/>
<path d="M149.617 77.9951C150.238 80.2643 149.833 85.4745 146.017 85.9183C140.974 85.8838 140.705 79.5808 142.402 76.6172C143.793 74.191 147.88 73.1825 149.617 77.9951Z" fill="#211715"/>
<path d="M160.647 146.586C167.127 149.682 173.787 152.26 180.333 155.177C186.281 157.934 191.639 162.085 196.05 167.353C200.845 173.006 204.549 179.714 206.929 187.056C208.141 190.997 209.139 195.017 209.918 199.094C210.824 203.431 211.646 207.788 212.382 212.165C213.845 220.849 214.968 229.593 215.75 238.397C216.133 242.754 216.428 247.12 216.638 251.495C216.874 255.148 216.889 258.814 216.683 262.469C216.243 268.432 214.766 274.884 210.927 279.262C206.409 284.418 199.605 284.69 194.012 281.601C188.008 278.255 182.884 273.206 179.145 266.952C175.041 260.157 171.714 252.807 169.24 245.077C168.646 243.245 168.094 241.397 167.572 239.54C166.823 236.876 163.082 238.014 163.838 240.698C166.066 248.871 169.121 256.729 172.944 264.117C174.889 267.955 177.156 271.575 179.715 274.926C182.095 277.857 184.808 280.422 187.784 282.556C193.773 286.952 201.117 289.866 208.106 286.59C214.056 283.802 217.687 277.395 219.337 270.615C221.131 263.242 220.769 255.601 220.331 248.061C219.791 238.726 218.841 229.42 217.54 220.182C216.249 211.023 214.594 201.942 212.575 192.937C210.835 184.829 207.709 177.179 203.369 170.416C199.171 163.96 193.865 158.516 187.764 154.408C184.571 152.433 181.237 150.762 177.797 149.41C174.304 147.913 170.794 146.465 167.309 144.943C165.734 144.255 164.162 143.557 162.608 142.814C162.161 142.541 161.638 142.47 161.146 142.616C160.654 142.761 160.23 143.111 159.959 143.596C159.703 144.095 159.633 144.688 159.763 145.246C159.893 145.804 160.213 146.282 160.654 146.576L160.647 146.586Z" fill="#211715"/>
<path d="M128.324 88.5088C122.069 88.5088 111.81 89.8649 104.688 91.0313C103.446 91.2355 100.373 91.5387 99.5627 92.5662C98.0563 94.4723 98.6284 98.5524 98.4331 100.868C98.2207 104.573 98.3188 108.293 98.726 111.978C99.177 116.86 99.3965 122.064 102.371 125.874C107.871 132.914 120.615 136.664 128.989 136.664C134.576 136.575 140.112 135.447 145.372 133.325C149.937 131.484 154.206 128.395 156.596 123.953C158.849 119.765 158.761 115.566 159.244 110.792C159.609 107.438 159.667 104.051 159.419 100.685C159.212 98.3745 159.736 94.603 158.208 92.6678C157.402 91.6421 154.866 91.231 153.621 91.0431C145.802 89.8612 135.273 88.5088 128.324 88.5088Z" fill="white"/>
<path d="M96.6226 95.7232C96.4499 97.9406 96.4862 100.204 96.3999 102.431C96.3274 104.797 96.3886 107.165 96.5831 109.522C96.9001 113.794 97.0446 118.424 98.413 122.465C100.978 130.044 108.176 133.919 114.647 136.209C121.554 138.695 128.874 139.372 136.049 138.189C143.858 136.883 152.467 133.876 157.403 126.479C160.259 122.2 160.622 117.108 161.068 111.971C161.361 109.182 161.507 106.375 161.504 103.567C161.481 102.313 161.347 101.07 161.307 99.8196C161.262 98.4126 161.307 97.013 161.161 95.6124C161.146 95.0401 160.937 94.4958 160.577 94.091C160.217 93.6861 159.734 93.4511 159.225 93.434C158.712 93.4373 158.221 93.6679 157.859 94.0757C157.496 94.4835 157.292 95.0357 157.289 95.6124C157.516 97.7791 157.477 100.01 157.585 102.191C157.689 104.506 157.645 106.826 157.455 109.133C157.151 113.052 157.121 117.433 155.733 121.105C152.828 128.786 144.712 131.808 138.051 133.375C131.442 134.933 124.6 134.729 118.074 132.779C115.011 131.925 112.05 130.664 109.253 129.02C106.801 127.537 104.259 125.628 102.828 122.863C100.912 119.161 100.85 114.412 100.512 110.253C100.291 107.785 100.207 105.305 100.259 102.826C100.328 100.473 100.313 98.0641 100.495 95.7213C100.491 95.145 100.286 94.5935 99.9238 94.1859C99.5615 93.7784 99.0713 93.5474 98.559 93.5429C98.0486 93.5543 97.5619 93.7874 97.2009 94.1935C96.84 94.5996 96.6327 95.1471 96.6226 95.7213V95.7232Z" fill="#211715"/>
<path d="M130.768 86.383C129.373 86.324 127.975 86.3031 126.58 86.3649C126.068 86.374 125.578 86.601 125.209 87.0003C124.937 87.3049 124.752 87.6936 124.677 88.1169C124.602 88.5401 124.64 88.979 124.787 89.3777C124.934 89.7764 125.183 90.1171 125.502 90.3564C125.821 90.5957 126.197 90.7228 126.58 90.7218C127.975 90.6601 129.373 90.6809 130.768 90.7399C131.281 90.7399 131.774 90.5104 132.137 90.1019C132.5 89.6933 132.704 89.1392 132.704 88.5615C132.704 87.9837 132.5 87.4296 132.137 87.0211C131.774 86.6125 131.281 86.383 130.768 86.383Z" fill="#211715"/>
<path d="M119.766 164.179C124.898 166.456 130.613 166.42 135.722 164.078C136.208 163.909 136.618 163.537 136.87 163.039C137.121 162.542 137.194 161.955 137.074 161.398C136.935 160.843 136.606 160.372 136.161 160.088C135.715 159.803 135.187 159.727 134.692 159.877C132.495 160.92 130.137 161.465 127.753 161.482C125.368 161.5 123.004 160.988 120.795 159.978C120.3 159.827 119.772 159.903 119.326 160.188C118.881 160.473 118.552 160.944 118.414 161.5C118.29 162.056 118.361 162.645 118.613 163.144C118.865 163.643 119.278 164.014 119.766 164.179Z" fill="#211715"/>
<path d="M149.805 142.811C150.14 143.058 150.452 143.343 150.734 143.663C150.048 140.592 150.096 137.199 153.267 135.981C154.176 135.593 155.181 135.595 156.088 135.989C156.996 136.382 157.742 137.138 158.185 138.112C158.467 138.727 159.272 140.593 159.272 140.593L159.654 141.479C159.493 140.478 159.651 139.446 160.101 138.564C160.551 137.682 161.264 137.008 162.113 136.66C164.958 135.55 167.067 137.353 168.621 141.003C169.509 143.091 170.835 146.871 172.575 151.697C174.741 157.717 177.27 163.458 179.208 167.601C180.015 164.334 180.015 160.395 180.634 156.97C180.957 155.174 181.319 153.29 182.39 151.908C182.935 151.256 183.655 150.821 184.44 150.672C185.224 150.522 186.031 150.664 186.737 151.078C187.241 151.377 187.683 151.793 188.034 152.298C188.385 152.803 188.636 153.386 188.773 154.009C190.209 164.095 190.439 174.352 189.458 184.507C189.227 187.139 188.254 189.617 187.412 192.084C187.008 193.264 186.615 194.001 186.812 195.201C187.127 196.569 187.608 197.883 188.241 199.104C190.63 204.249 193.818 209.769 196.685 215.533C185.52 223.874 174.602 228.702 164.977 232.905C163.4 233.594 163.417 232.794 162.902 230.982C160.576 222.806 161.148 209.288 160.357 206.392C159.615 203.678 155.07 197.106 154.049 195.381C151.895 191.676 149.97 187.809 148.287 183.807C146.512 179.476 142.801 170.431 141.712 166.328C141.196 164.705 141.262 162.921 141.896 161.352C142.269 160.447 142.916 159.721 143.721 159.303C144.204 159.076 144.724 158.963 145.247 158.973C145.771 158.982 146.287 159.113 146.763 159.358L147.213 159.511C146.137 155.949 145.144 152.448 144.227 149.274C144.001 148.488 143.454 144.345 146.345 142.743C146.87 142.388 147.472 142.207 148.084 142.219C148.696 142.231 149.292 142.436 149.805 142.811Z" fill="white"/>
<path d="M181.357 166.833C181.841 164.02 181.937 161.151 182.37 158.332C182.607 156.789 182.865 153.402 184.525 152.874C184.833 152.779 185.159 152.775 185.469 152.864C185.779 152.952 186.063 153.129 186.294 153.379C187.079 154.209 187.047 155.564 187.191 156.686C187.541 159.4 187.774 162.132 187.922 164.872C188.221 170.68 188.146 176.504 187.697 182.3C187.474 185.059 186.884 187.765 185.947 190.328C185.427 191.527 185.058 192.801 184.852 194.115C184.827 195.635 185.155 197.137 185.803 198.472C188.088 204.099 191.264 209.301 194.013 214.65C195.261 217.076 198.608 214.885 197.357 212.45C194.661 207.207 191.614 202.113 189.297 196.634C189.049 196.209 188.885 195.728 188.816 195.226C188.748 194.723 188.776 194.209 188.899 193.72C189.392 192.177 189.994 190.678 190.469 189.126C191.266 186.058 191.695 182.883 191.742 179.686C192.119 173.429 192.043 167.148 191.514 160.905C191.381 159.387 191.216 157.872 191.03 156.36C190.969 154.782 190.64 153.23 190.062 151.79C189.448 150.576 188.506 149.613 187.374 149.04C186.242 148.466 184.977 148.312 183.762 148.599C180.769 149.331 179.485 152.614 178.897 155.666C178.258 158.967 178.194 162.358 177.622 165.671C177.499 166.227 177.571 166.816 177.823 167.314C178.074 167.813 178.487 168.184 178.975 168.35C179.47 168.498 179.997 168.422 180.442 168.137C180.888 167.853 181.216 167.383 181.356 166.829L181.357 166.833Z" fill="#211715"/>
<path d="M180.88 166.506C178.655 161.744 176.554 156.894 174.731 151.919C173.8 149.378 172.909 146.823 171.979 144.285C171.344 142.349 170.583 140.468 169.703 138.657C168.774 136.677 167.217 135.162 165.342 134.414C164.394 134.12 163.398 134.082 162.434 134.303C161.471 134.524 160.568 134.997 159.798 135.685C158.954 136.457 158.32 137.48 157.969 138.638C157.618 139.796 157.564 141.042 157.813 142.233C158.149 143.579 158.555 144.901 159.031 146.193C159.469 147.568 159.909 148.942 160.352 150.314C162.15 155.876 164.059 161.388 166.161 166.81C166.423 167.306 166.848 167.666 167.344 167.812C167.839 167.958 168.367 167.879 168.811 167.591C169.244 167.29 169.558 166.812 169.688 166.257C169.817 165.702 169.752 165.113 169.506 164.61C167.892 160.452 166.411 156.235 165.008 151.982C164.247 149.672 163.504 147.353 162.765 145.034C162.403 143.898 162 142.765 161.681 141.612C161.555 141.269 161.505 140.897 161.536 140.527C161.568 140.158 161.679 139.803 161.861 139.493C162.151 139.077 162.546 138.77 162.995 138.613C163.444 138.456 163.925 138.457 164.373 138.615C165.664 139.184 166.445 140.902 167.026 142.28C168.616 146.056 169.857 150.019 171.291 153.87C173.171 158.918 175.273 163.854 177.535 168.701C178.695 171.184 182.039 168.984 180.88 166.501V166.506Z" fill="#211715"/>
<path d="M161.369 168.079C159.077 163.184 157.447 157.961 155.674 152.754C154.841 150.311 154.018 147.863 153.244 145.396C152.829 144.204 152.53 142.965 152.352 141.701C152.182 140.72 152.333 139.704 152.778 138.838C153.148 138.362 153.653 138.044 154.207 137.938C154.762 137.832 155.332 137.944 155.822 138.255C156.716 138.946 157.144 140.636 157.597 141.692C157.859 142.187 158.284 142.547 158.779 142.693C159.275 142.839 159.802 142.76 160.246 142.474C160.682 142.174 160.997 141.696 161.127 141.141C161.256 140.586 161.19 139.995 160.941 139.494C160.446 138.088 159.772 136.77 158.939 135.583C158.229 134.753 157.34 134.144 156.36 133.814C155.379 133.484 154.339 133.445 153.341 133.7C152.472 133.897 151.651 134.303 150.935 134.89C150.218 135.476 149.623 136.23 149.189 137.099C148.473 138.812 148.26 140.737 148.581 142.594C148.94 145.437 150.012 148.171 150.902 150.844C152.026 154.216 153.185 157.572 154.381 160.912C155.454 164.1 156.669 167.226 158.021 170.277C159.183 172.759 162.527 170.559 161.365 168.079H161.369Z" fill="#211715"/>
<path d="M153.542 172.106C151.151 165.797 149.059 159.351 147.272 152.794C146.874 151.412 146.394 150.026 146.073 148.619C146.049 148.513 146.033 148.406 146.008 148.302C145.927 147.951 146.019 148.774 145.994 148.19C145.967 147.753 145.967 147.314 145.994 146.877C146.047 146.221 145.904 147.215 146.046 146.548C146.09 146.313 146.15 146.081 146.224 145.856C146.374 145.499 146.589 145.181 146.855 144.923C147.191 144.593 147.626 144.421 148.072 144.441C148.517 144.461 148.939 144.673 149.25 145.032C149.694 145.32 150.221 145.399 150.717 145.253C151.213 145.106 151.638 144.746 151.9 144.25C152.147 143.748 152.212 143.158 152.083 142.603C151.954 142.048 151.639 141.57 151.205 141.269C148.446 138.926 144.353 140.308 142.852 143.72C141.803 146.106 142.011 148.622 142.713 151.068C144.84 158.958 147.34 166.714 150.201 174.305C150.463 174.801 150.888 175.161 151.384 175.307C151.879 175.453 152.407 175.374 152.851 175.086C153.285 174.785 153.599 174.307 153.729 173.753C153.858 173.198 153.792 172.608 153.546 172.106H153.542Z" fill="#211715"/>
<path d="M147.275 157.255C146.129 156.737 144.862 156.663 143.675 157.046C142.487 157.429 141.448 158.247 140.72 159.37C140.054 160.495 139.632 161.78 139.488 163.122C139.345 164.463 139.483 165.824 139.893 167.095C141.052 170.982 142.427 174.785 144.008 178.479C145.648 182.606 147.291 186.739 149.252 190.684C150.885 193.901 152.677 197.013 154.619 200.005C155.628 201.592 156.63 203.192 157.523 204.866C157.881 205.501 158.195 206.165 158.464 206.853C158.295 206.39 158.502 207.034 158.533 207.173C158.592 207.43 158.625 207.693 158.662 207.955C158.571 207.307 158.685 208.263 158.696 208.394C158.724 208.73 158.747 209.066 158.767 209.403C158.823 210.287 158.863 211.173 158.901 212.058C158.99 214.08 159.07 216.101 159.19 218.121C159.333 222.571 159.925 226.989 160.953 231.29C161.541 233.469 162.315 235.776 164.788 235.232C165.713 234.954 166.614 234.584 167.481 234.127C168.5 233.676 169.518 233.219 170.534 232.756C180.952 228.165 190.917 222.367 200.268 215.456C202.324 213.897 200.388 210.121 198.313 211.693C190.483 217.55 182.181 222.567 173.518 226.678C171.656 227.577 169.779 228.437 167.897 229.282C167.036 229.668 166.173 230.051 165.307 230.43C165.004 230.563 164.146 230.742 163.962 230.984C164.103 230.803 166.302 231.972 164.951 231.396C165.142 231.477 165.138 231.991 165.066 231.505C164.941 230.673 164.599 229.843 164.408 229.023C164.18 228.041 163.995 227.045 163.838 226.045C163.515 224.007 163.325 221.947 163.178 219.885C162.923 216.324 162.862 212.752 162.627 209.191C162.597 208.025 162.453 206.866 162.196 205.736C161.714 204.244 161.057 202.831 160.24 201.536C158.751 198.933 157.02 196.519 155.512 193.933C153.318 190.152 151.376 186.192 149.703 182.087C148.103 178.184 146.497 174.274 145.059 170.287C144.292 168.5 143.718 166.616 143.35 164.675C143.075 162.467 144.176 160.536 146.245 161.455C146.741 161.604 147.268 161.528 147.714 161.244C148.159 160.959 148.488 160.488 148.627 159.933C148.752 159.377 148.681 158.787 148.429 158.288C148.177 157.789 147.764 157.419 147.275 157.254V157.255Z" fill="#211715"/>
<path d="M93.4316 142.824C86.7768 146.001 79.8985 148.543 73.2123 151.634C66.7499 154.787 60.9779 159.491 56.3002 165.416C51.3258 171.63 47.512 178.905 45.0852 186.809C43.8415 191.078 42.8101 195.421 41.9958 199.819C41.0712 204.379 40.2388 208.961 39.4986 213.565C38.0286 222.712 36.9224 231.923 36.1801 241.197C35.5363 249.322 34.7988 257.656 35.8235 265.772C36.6578 272.38 38.929 279.323 43.6571 283.658C49.4413 288.96 57.1119 289.013 63.6851 285.523C70.2381 281.932 75.837 276.467 79.9211 269.675C84.2765 262.52 87.8026 254.769 90.414 246.61C91.0522 244.659 91.6436 242.687 92.2019 240.705C92.9555 238.025 89.2166 236.878 88.4671 239.547C86.3688 247.227 83.506 254.616 79.9332 261.574C78.144 265.169 76.0537 268.565 73.6907 271.713C71.5211 274.438 69.0349 276.822 66.2993 278.8C63.5603 280.996 60.4572 282.552 57.174 283.375C54.0997 284.08 50.903 283.554 48.1374 281.887C43.3198 278.801 40.9687 272.872 39.9174 266.991C38.6216 259.742 39.2864 252.157 39.7826 244.851C40.3818 236.045 41.3336 227.286 42.638 218.572C43.929 209.89 45.4902 201.21 47.5242 192.703C49.2765 185.14 52.3453 178.044 56.5527 171.826C60.5274 166.01 65.5074 161.16 71.1927 157.567C74.218 155.821 77.3494 154.319 80.5633 153.072C83.952 151.633 87.3456 150.225 90.7141 148.737C92.2799 148.045 93.8374 147.328 95.3865 146.588C95.8277 146.294 96.148 145.816 96.278 145.258C96.4081 144.7 96.3373 144.107 96.0812 143.607C95.8127 143.12 95.3881 142.767 94.895 142.622C94.402 142.476 93.8781 142.549 93.4316 142.826V142.824Z" fill="#211715"/>
<path d="M106.227 142.811C105.892 143.058 105.58 143.343 105.298 143.663C105.985 140.592 105.937 137.199 102.765 135.981C101.856 135.593 100.852 135.595 99.9443 135.989C99.037 136.382 98.2906 137.138 97.8482 138.112C97.5658 138.727 96.7605 140.593 96.7605 140.593L96.3781 141.479C96.5399 140.478 96.3817 139.446 95.9316 138.564C95.4815 137.682 94.7685 137.007 93.9189 136.66C91.074 135.55 88.9657 137.353 87.4117 141.003C86.5242 143.091 85.197 146.871 83.4582 151.697C81.2919 157.717 78.7641 163.458 76.8253 167.601C76.0184 164.334 76.0184 160.395 75.3988 156.97C75.076 155.174 74.7138 153.29 73.6431 151.908C73.098 151.256 72.3782 150.821 71.5935 150.671C70.8087 150.522 70.0019 150.664 69.2959 151.078C68.7922 151.377 68.3505 151.793 67.9997 152.298C67.6489 152.804 67.3969 153.386 67.2602 154.009C65.8241 164.095 65.594 174.352 66.576 184.507C66.806 187.139 67.779 189.617 68.6214 192.083C69.0248 193.263 69.4185 194.001 69.2208 195.2C68.9067 196.569 68.4258 197.883 67.7919 199.104C65.4037 204.249 61.4462 210.777 58.5787 216.546C69.7437 224.886 81.4315 228.709 91.057 232.909C92.6336 233.598 92.6166 232.798 93.1322 230.985C95.4575 222.81 94.8855 209.291 95.677 206.396C96.4193 203.682 100.964 197.109 101.985 195.385C104.14 191.679 106.065 187.811 107.748 183.807C109.523 179.476 113.235 170.431 114.324 166.328C114.839 164.705 114.773 162.921 114.14 161.352C113.767 160.447 113.12 159.721 112.315 159.303C111.832 159.076 111.312 158.963 110.788 158.973C110.265 158.982 109.749 159.113 109.272 159.358L108.823 159.511C109.898 155.949 110.891 152.448 111.808 149.274C112.035 148.488 112.582 144.345 109.69 142.743C109.165 142.388 108.562 142.205 107.95 142.217C107.337 142.229 106.74 142.435 106.227 142.811Z" fill="white"/>
<path d="M78.4091 165.674C77.8685 162.545 77.7999 159.339 77.2351 156.212C76.7252 153.387 75.8232 150.245 73.2817 148.991C72.0643 148.41 70.7064 148.316 69.4351 148.726C68.1638 149.136 67.0562 150.025 66.2977 151.244C65.6347 152.403 65.2434 153.733 65.16 155.108C64.9333 156.828 64.734 158.557 64.5735 160.282C63.9945 166.73 63.8995 173.222 64.2895 179.688C64.3425 183.025 64.8132 186.337 65.6877 189.526C66.1363 190.939 66.6825 192.312 67.1344 193.724C67.5523 195.033 66.9593 196.157 66.426 197.338C63.907 202.916 60.6902 208.058 57.9066 213.464C56.6544 215.895 60.0003 218.093 61.2501 215.663C63.5899 211.125 66.1944 206.759 68.4963 202.192C69.6146 199.974 71.0911 197.424 71.2032 194.814C71.1504 193.456 70.8384 192.127 70.2883 190.917C69.7929 189.486 69.2773 188.059 68.9078 186.577C68.1873 183.688 68.1816 180.516 68.055 177.533C67.9283 174.57 67.8936 171.601 67.963 168.638C68.034 165.639 68.2155 162.647 68.5076 159.661C68.6464 158.246 68.8137 156.836 69.0095 155.431C69.1523 154.402 69.3378 153.434 70.2746 152.961C72.5176 151.839 73.1655 155.553 73.468 157.192C74.0546 160.375 74.124 163.644 74.6783 166.835C74.819 167.389 75.1474 167.859 75.5928 168.144C76.0382 168.428 76.5651 168.504 77.0601 168.357C77.5495 168.193 77.9637 167.823 78.2158 167.323C78.4679 166.824 78.5383 166.234 78.4123 165.677L78.4091 165.674Z" fill="#211715"/>
<path d="M78.497 168.705C80.4447 164.535 82.2819 160.297 83.9472 155.975C85.5609 151.788 86.9511 147.495 88.5881 143.321C89.186 141.798 89.8298 139.987 91.0724 138.976C91.4594 138.678 91.9171 138.518 92.3861 138.516C92.8552 138.514 93.3138 138.671 93.7026 138.966C95.0025 139.989 94.3207 141.728 93.8382 143.245C93.0959 145.576 92.3544 147.908 91.5984 150.234C90.0219 155.08 88.3598 159.886 86.5275 164.616C86.2842 165.119 86.2207 165.707 86.3498 166.261C86.4788 166.815 86.7908 167.293 87.2221 167.597C87.6664 167.884 88.1933 167.963 88.6889 167.817C89.1846 167.67 89.6092 167.311 89.871 166.815C91.7493 161.969 93.4808 157.059 95.1025 152.099C95.961 149.472 96.7969 146.834 97.6368 144.202C98.4823 141.545 98.7502 138.97 97.072 136.631C96.4672 135.816 95.7028 135.169 94.8387 134.742C93.9746 134.314 93.0343 134.118 92.0914 134.167C91.1446 134.244 90.2239 134.55 89.3925 135.066C88.5611 135.581 87.8388 136.293 87.2754 137.152C86.1483 138.91 85.2415 140.834 84.5806 142.87C83.7076 145.202 82.8749 147.552 82.0326 149.899C79.9977 155.568 77.6829 161.092 75.1559 166.504C73.9973 168.984 77.3384 171.189 78.4994 168.703L78.497 168.705Z" fill="#211715"/>
<path d="M98.0063 170.277C99.2367 167.649 100.214 164.858 101.213 162.113C102.421 158.789 103.587 155.447 104.71 152.085C106.463 146.871 110.476 137.571 104.128 134.268C103.081 133.682 101.906 133.447 100.744 133.592C99.5823 133.737 98.4819 134.255 97.5746 135.085C96.3539 136.24 95.7673 137.921 95.0872 139.496C94.8408 139.999 94.7755 140.588 94.9048 141.143C95.0342 141.697 95.3482 142.175 95.7818 142.476C96.2262 142.763 96.753 142.842 97.2485 142.696C97.744 142.549 98.1686 142.19 98.4307 141.695C98.7903 140.635 99.2539 139.624 99.8128 138.68C100.15 138.292 100.587 138.034 101.062 137.942C101.538 137.85 102.027 137.93 102.459 138.169C102.892 138.408 103.247 138.795 103.472 139.275C103.698 139.754 103.783 140.302 103.715 140.839C103.657 142.196 103.406 143.535 102.972 144.803C101.343 150.163 99.4755 155.45 97.5738 160.694C96.675 163.174 95.7988 165.65 94.662 168.081C93.5017 170.56 96.8404 172.764 98.0063 170.28V170.277Z" fill="#211715"/>
<path d="M105.833 174.305C108.694 166.714 111.194 158.958 113.321 151.068C114.024 148.624 114.232 146.108 113.182 143.72C111.681 140.305 107.588 138.924 104.829 141.269C104.397 141.573 104.085 142.051 103.956 142.605C103.827 143.159 103.891 143.747 104.134 144.25C104.396 144.746 104.821 145.106 105.317 145.252C105.812 145.398 106.34 145.319 106.784 145.032C107.095 144.671 107.516 144.459 107.962 144.439C108.408 144.419 108.844 144.592 109.179 144.923C109.677 145.427 109.985 146.126 110.039 146.877C110.062 147.285 110.062 147.694 110.039 148.101C110.031 148.217 110.021 148.331 110.009 148.446C110.047 148.148 110.053 148.077 110.029 148.236C110.001 148.362 109.983 148.492 109.954 148.619C109.635 150.026 109.153 151.414 108.754 152.794C106.968 159.351 104.875 165.797 102.485 172.106C102.241 172.609 102.178 173.197 102.307 173.751C102.436 174.305 102.748 174.783 103.18 175.086C103.624 175.374 104.151 175.453 104.647 175.306C105.143 175.16 105.568 174.8 105.829 174.305H105.833Z" fill="#211715"/>
<path d="M109.786 161.457C111.618 160.64 112.8 162.056 112.721 164.16C112.525 165.816 112.097 167.427 111.454 168.933C110.163 172.654 108.687 176.301 107.209 179.934C105.606 183.958 103.795 187.873 101.787 191.66C100.314 194.391 98.5969 196.909 96.9824 199.532C95.4672 201.996 93.8834 204.497 93.5445 207.53C93.1822 210.772 93.1895 214.071 93.0112 217.333C92.8869 221.369 92.3979 225.38 91.5516 229.305C91.4499 229.725 91.3346 230.14 91.2216 230.555C91.17 230.743 90.8319 231.522 90.8932 231.725C90.8069 231.439 91.4693 231.2 91.504 231.18C92.1204 230.874 92.0688 231.104 91.8332 230.908C91.3962 230.647 90.9323 230.449 90.4519 230.316C88.5663 229.499 86.6743 228.711 84.7847 227.91C75.0873 223.797 65.582 219.232 56.9448 212.701C54.8704 211.132 52.93 214.905 54.9899 216.463C63.3979 222.822 72.6596 227.368 82.0995 231.406C84.1594 232.288 86.2265 233.152 88.2872 234.032C89.9968 234.758 92.2858 236.262 93.8592 234.415C94.4059 233.622 94.7811 232.697 94.9548 231.712C95.2251 230.725 95.4656 229.735 95.6592 228.723C96.0744 226.446 96.3769 224.145 96.5653 221.83C96.9284 217.769 97.0018 213.69 97.2454 209.62C97.2834 208.976 97.3302 208.331 97.3963 207.689C97.331 208.325 97.4221 207.535 97.4472 207.405C97.4968 207.154 97.5601 206.906 97.6368 206.663C97.4931 207.129 97.8126 206.254 97.8788 206.118C98.0402 205.769 98.212 205.427 98.3895 205.088C98.8389 204.227 99.3255 203.39 99.8217 202.563C101.516 199.738 103.389 197.064 104.973 194.154C107.127 190.107 109.062 185.918 110.766 181.608C112.561 177.185 114.408 172.738 115.832 168.142C116.632 165.554 116.982 162.781 115.811 160.254C115.177 158.856 114.103 157.775 112.798 157.221C111.494 156.667 110.052 156.68 108.756 157.258C108.269 157.426 107.858 157.797 107.606 158.296C107.355 158.794 107.282 159.381 107.404 159.938C107.543 160.493 107.871 160.964 108.317 161.248C108.763 161.533 109.29 161.609 109.785 161.46L109.786 161.457Z" fill="#211715"/>
<path d="M90.4019 58.2029L87.4884 69.9384C87.4208 70.2143 87.4022 70.5024 87.4335 70.7863C87.4649 71.0702 87.5457 71.3444 87.6712 71.5932C87.7968 71.8421 87.9647 72.0606 88.1654 72.2364C88.366 72.4122 88.5955 72.5419 88.8406 72.6179C89.0858 72.694 89.3419 72.7149 89.5943 72.6797C89.8467 72.6444 90.0904 72.5535 90.3116 72.4122C90.5328 72.271 90.727 72.0821 90.8833 71.8563C91.0396 71.6306 91.1548 71.3725 91.2224 71.0966L94.1335 59.3629C94.27 58.8058 94.2042 58.2104 93.9505 57.7078C93.6969 57.2052 93.2761 56.8366 92.7808 56.683C92.2856 56.5294 91.7563 56.6034 91.3096 56.8888C90.8628 57.1742 90.5352 57.6475 90.3987 58.2047L90.4019 58.2029Z" fill="#211715"/>
<path d="M162.045 57.8489L164.958 69.5836C165.095 70.1407 165.422 70.6141 165.869 70.8995C166.316 71.1848 166.845 71.2589 167.34 71.1053C167.836 70.9517 168.256 70.5831 168.51 70.0805C168.764 69.5779 168.83 68.9825 168.693 68.4253L165.78 56.6907C165.644 56.1337 165.316 55.6604 164.87 55.3751C164.423 55.0898 163.894 55.0159 163.399 55.1694C162.904 55.323 162.483 55.6916 162.229 56.1941C161.976 56.6966 161.91 57.2919 162.046 57.8489H162.045Z" fill="#211715"/>
<path d="M89.5128 73.9767C99.5385 72.5189 109.593 71.2645 119.7 70.8179C130.219 70.4032 140.75 70.7862 151.222 71.9643C156.712 72.5543 162.189 73.2987 167.658 74.1029C168.171 74.0998 168.662 73.8693 169.024 73.4614C169.387 73.0535 169.592 72.5012 169.594 71.9244C169.582 71.3511 169.374 70.8051 169.013 70.3996C168.653 69.994 168.168 69.76 167.658 69.746C157.545 68.2582 147.397 66.9829 137.203 66.4783C127.171 66.0299 117.124 66.3331 107.128 67.386C101.238 67.9778 95.3736 68.7684 89.5128 69.6207C89.0043 69.6386 88.5209 69.8739 88.1612 70.2786C87.8015 70.6834 87.5923 71.2271 87.5764 71.7991C87.5791 72.376 87.784 72.9283 88.1466 73.3361C88.5091 73.744 89 73.9736 89.5128 73.9767Z" fill="#211715"/>
<path d="M89.5128 67.0165C99.5385 65.5579 109.593 64.3043 119.7 63.8577C130.219 63.4422 140.75 63.825 151.222 65.0033C156.712 65.5942 162.189 66.3376 167.658 67.1418C168.171 67.1389 168.662 66.9085 169.024 66.5006C169.387 66.0926 169.592 65.5402 169.594 64.9633C169.582 64.39 169.374 63.844 169.013 63.4385C168.653 63.0329 168.168 62.7989 167.658 62.7849C157.545 61.2972 147.397 60.0219 137.203 59.5172C127.171 59.0692 117.124 59.3724 107.128 60.4249C101.238 61.0176 95.3736 61.8082 89.5128 62.6605C89.0042 62.6782 88.5208 62.9135 88.161 63.3182C87.8012 63.723 87.5921 64.2668 87.5764 64.839C87.5795 65.4156 87.7846 65.9676 88.147 66.3754C88.5095 66.7832 89.0002 67.0129 89.5128 67.0165Z" fill="#211715"/>
<path d="M85.0405 73.0908L89.7088 73.8841C90.2132 74.0186 90.744 73.9404 91.2006 73.6644C91.4203 73.5201 91.6125 73.3284 91.7663 73.1005C91.9201 72.8725 92.0324 72.6127 92.0969 72.3359C92.1615 72.0591 92.1769 71.7707 92.1423 71.4872C92.1077 71.2037 92.0238 70.9306 91.8953 70.6836C91.7718 70.4384 91.6058 70.2236 91.407 70.0521C91.2083 69.8805 90.9808 69.7557 90.7383 69.6851L86.0708 68.8936C85.5661 68.7591 85.0351 68.8373 84.5781 69.1133C84.3585 69.2576 84.1663 69.4492 84.0125 69.6772C83.8587 69.9051 83.7464 70.1649 83.6818 70.4418C83.6173 70.7186 83.6019 71.007 83.6365 71.2905C83.6711 71.574 83.755 71.8471 83.8835 72.0941C84.0071 72.3392 84.1732 72.5538 84.3719 72.7254C84.5707 72.8969 84.798 73.0217 85.0405 73.0926V73.0908Z" fill="#211715"/>
<path d="M85.0404 66.3521L89.7088 67.1454C90.2132 67.2799 90.744 67.2018 91.2006 66.9258C91.644 66.6343 91.9663 66.1565 92.0965 65.5977C92.2268 65.0388 92.1544 64.4446 91.8953 63.9458C91.7719 63.7006 91.6059 63.4858 91.4071 63.3142C91.2083 63.1427 90.9809 63.0179 90.7383 62.9474L86.0708 62.1541C85.5662 62.0192 85.0352 62.0971 84.5781 62.3728C84.1351 62.665 83.8133 63.1431 83.6837 63.7021C83.554 64.2612 83.627 64.8552 83.8867 65.3537C84.0103 65.5987 84.1764 65.8134 84.3751 65.9849C84.5739 66.1564 84.8012 66.2813 85.0437 66.3521H85.0404Z" fill="#211715"/>
<path d="M171.358 69.1224L166.696 69.9629C166.21 70.1134 165.795 70.4717 165.539 70.9614C165.28 71.4602 165.208 72.0544 165.338 72.6132C165.468 73.1721 165.791 73.6498 166.234 73.9413L166.696 74.161C167.033 74.2645 167.389 74.2645 167.726 74.161L172.388 73.3214C172.874 73.1709 173.289 72.8126 173.545 72.3229C173.673 72.0759 173.757 71.8028 173.792 71.5193C173.826 71.2358 173.811 70.9474 173.746 70.6706C173.682 70.3938 173.569 70.134 173.416 69.906C173.262 69.6781 173.07 69.4864 172.85 69.3421L172.388 69.1224C172.051 69.0189 171.695 69.0189 171.358 69.1224Z" fill="#211715"/>
<path d="M171.358 62.1242L166.696 62.9638C166.21 63.1143 165.795 63.4725 165.539 63.9622C165.411 64.2093 165.327 64.4823 165.292 64.7658C165.258 65.0494 165.273 65.3378 165.338 65.6146C165.402 65.8914 165.514 66.1512 165.668 66.3791C165.822 66.6071 166.014 66.7987 166.234 66.9431L166.696 67.1627C167.033 67.2662 167.389 67.2662 167.726 67.1627L172.388 66.3222C172.874 66.1717 173.289 65.8135 173.545 65.3238C173.804 64.825 173.876 64.2308 173.746 63.6719C173.616 63.1131 173.293 62.6354 172.85 62.3438L172.388 62.1242C172.051 62.0196 171.695 62.0196 171.358 62.1242Z" fill="#211715"/>
<path d="M165.434 71.7711C164.632 75.4527 164.018 79.1833 163.255 82.8758C162.852 84.8246 162.426 86.7679 161.911 88.685C161.556 90.0075 161.249 92.0053 160.383 92.8712C159.756 93.4966 158.6 93.5465 157.809 93.7372C156.679 94.0095 155.543 94.2558 154.401 94.476C152.173 94.9057 149.933 95.2221 147.68 95.4255C145.432 95.6324 143.178 95.7386 140.923 95.7577C140.099 95.8422 139.269 95.746 138.478 95.4745C138.339 95.4047 138.204 95.324 138.075 95.233C137.531 94.8809 138.146 95.3447 137.905 95.1087C137.529 94.697 137.182 94.2537 136.866 93.7825C135.763 92.2994 134.687 90.7914 133.639 89.2586C132.697 87.8762 131.834 86.1216 130.431 85.2848C126.772 83.1063 124.426 88.2375 122.549 90.8979C121.941 91.762 121.322 92.6183 120.694 93.4667C120.268 94.1628 119.749 94.7799 119.154 95.2957C117.456 96.2034 115.139 95.7586 113.303 95.6751C108.764 95.4771 104.247 94.8501 99.8007 93.8007C98.839 93.5729 97.3447 93.552 96.7057 92.5844C96.3737 91.9768 96.1287 91.3143 95.9795 90.6211C95.353 88.561 94.8203 86.4664 94.3836 84.3453C93.4824 80.1699 92.803 75.9428 91.8953 71.7729C91.3023 69.0498 87.5667 70.2035 88.1605 72.9311C88.998 76.7761 89.6354 80.6737 90.4414 84.5268C90.8755 86.6 91.3402 88.6695 91.9211 90.6991C92.4472 92.5363 92.9845 94.6857 94.2852 96.0255C96.0174 97.8109 98.7389 98.0314 100.956 98.4889C103.367 98.9872 105.797 99.3694 108.239 99.6408C110.691 99.9131 113.151 100.062 115.613 100.106C117.858 100.146 120.127 100.081 121.941 98.3954C123.322 96.9033 124.562 95.2547 125.642 93.4758C126.556 92.1687 127.424 90.6165 128.418 89.442C128.772 89.0235 128.728 89.1833 129.093 89.6725C129.458 90.1618 129.804 90.7382 130.158 91.2583C131.375 93.0473 132.613 94.8173 133.894 96.5492C135.124 98.2112 136.315 99.4792 138.278 99.9076C140.698 100.441 143.386 100.095 145.835 99.9276C150.636 99.6009 155.406 98.8301 160.095 97.623C161.34 97.3751 162.483 96.6889 163.359 95.6633C164.016 94.7318 164.516 93.6729 164.834 92.539C165.52 90.4501 166.089 88.3153 166.54 86.1471C167.508 81.7647 168.211 77.3143 169.166 72.9293C169.759 70.2062 166.025 69.0444 165.431 71.7711H165.434Z" fill="#211715"/>
</g>
<defs>
<clipPath id="clip0_334_461">
<rect width="256" height="288" fill="white"/>
</clipPath>
</defs>
</svg>
