<svg width="33" height="32" viewBox="0 0 33 32" fill="none" xmlns="http://www.w3.org/2000/svg">
<circle cx="16.5" cy="16" r="16" fill="#F54749" fill-opacity="0.2"/>
<circle cx="16.5" cy="16" r="15.5" stroke="#F54749" stroke-opacity="0.6"/>
<path d="M23.6204 8.81188C23.3222 8.97617 23.2825 9.47713 23.5315 9.93055C23.7806 10.3844 24.2254 10.6195 24.5236 10.4553C24.8222 10.2919 24.8623 9.79086 24.6125 9.3366C24.3638 8.88275 23.9194 8.64763 23.6204 8.81188Z" fill="#8C1D18" stroke="#8C1D18" stroke-width="0.002"/>
<path d="M12.9545 19.4261C12.7342 18.9415 12.5982 18.4046 12.5646 17.7475C12.5577 17.6144 12.5552 17.4751 12.5573 17.3314C12.5593 17.1876 12.4442 17.0696 12.3004 17.0671C12.1571 17.0659 12.0387 17.1806 12.0367 17.3248C12.035 17.4792 12.037 17.6288 12.0448 17.7745C12.0808 18.4885 12.2324 19.0968 12.481 19.642C12.7301 20.1864 13.0737 20.6652 13.4858 21.1301C13.7263 21.4013 13.8311 21.7183 13.8479 22.0358C13.8651 22.3598 13.7824 22.6813 13.6607 22.9086C13.5936 23.0352 13.6415 23.1925 13.7685 23.2601C13.8951 23.3277 14.0532 23.2798 14.1204 23.1528C14.2879 22.8378 14.3887 22.4351 14.3678 22.0091C14.3473 21.5946 14.2031 21.1531 13.8754 20.7844C13.485 20.3445 13.1757 19.9095 12.9545 19.4261Z" fill="#8C1D18" stroke="#8C1D18" stroke-width="0.002"/>
<path d="M16.9205 21.2301C17.2842 21.2112 17.5705 21.083 17.7639 20.9598C17.9588 20.8373 18.0637 20.7197 18.0755 20.7062C18.1706 20.5981 18.1604 20.4338 18.0518 20.3388C17.9449 20.2446 17.7811 20.2544 17.6864 20.3609H17.6856L17.6827 20.3646C17.6663 20.3822 17.5828 20.4657 17.4472 20.544C17.3104 20.6239 17.1248 20.698 16.8942 20.7099C16.7406 20.7172 16.5666 20.6984 16.3662 20.63C16.0164 20.5108 15.7108 20.2933 15.4483 20.0267C15.0551 19.6261 14.7643 19.1161 14.5767 18.7073C14.4824 18.5029 14.414 18.3235 14.3694 18.1973C14.3469 18.1342 14.3305 18.0843 14.3202 18.0503C14.3149 18.0335 14.3108 18.0208 14.3088 18.0126L14.3059 18.0036L14.3051 18.0011C14.2662 17.8631 14.1224 17.7828 13.9839 17.8221C13.8455 17.8602 13.7656 18.0044 13.8041 18.1428V18.1425C13.8082 18.1548 13.9721 18.7364 14.3452 19.3983C14.5325 19.7293 14.7725 20.0808 15.0776 20.3917C15.3811 20.701 15.7522 20.9705 16.1979 21.1225C16.4584 21.212 16.7025 21.2407 16.9205 21.2301Z" fill="#8C1D18" stroke="#8C1D18" stroke-width="0.002"/>
<path d="M16.3494 23.7275C16.2274 23.6234 16.118 23.5395 16.0103 23.4772C15.9554 23.4461 15.9013 23.4207 15.8431 23.4011C15.7858 23.3822 15.7219 23.3699 15.6523 23.3732C15.6035 23.3756 15.5523 23.3867 15.5044 23.4085C15.4188 23.4453 15.3528 23.5125 15.3119 23.5805C15.25 23.6846 15.2275 23.7902 15.2132 23.909C15.2001 24.0282 15.1993 24.1625 15.2074 24.3186C15.2144 24.462 15.3369 24.5722 15.4807 24.5652C15.624 24.5575 15.7346 24.4358 15.7273 24.292C15.7219 24.1867 15.7215 24.0974 15.7256 24.0274C15.7281 23.9835 15.7326 23.95 15.7375 23.9213C15.7526 23.9299 15.7699 23.9393 15.7887 23.9516C15.8915 24.018 16.0402 24.1416 16.22 24.3145C16.401 24.4869 16.6161 24.7094 16.8655 24.9756C16.9638 25.0796 17.1289 25.0858 17.2333 24.9871C17.3378 24.8888 17.3439 24.7241 17.2452 24.6192C16.8856 24.2354 16.5923 23.938 16.3494 23.7275Z" fill="#8C1D18" stroke="#8C1D18" stroke-width="0.002"/>
<path d="M18.6284 21.7347C18.5375 21.8526 18.44 21.9145 18.3249 21.9575C18.2102 21.9997 18.0767 22.0169 17.9382 22.0243C17.8416 22.0288 17.7429 22.0288 17.645 22.0341C17.5848 22.037 17.525 22.0418 17.4627 22.0529C17.4168 22.0619 17.3681 22.0747 17.3181 22.0964C17.2804 22.1123 17.2414 22.1345 17.205 22.1648C17.1493 22.209 17.1014 22.2738 17.0756 22.3446C17.049 22.4155 17.0416 22.4879 17.0453 22.5568C17.0514 22.6678 17.0842 22.7673 17.1268 22.8612C17.2047 23.025 17.3181 23.1749 17.4471 23.3207C17.6397 23.5386 17.8674 23.7434 18.0624 23.9073C18.1599 23.9901 18.248 24.0613 18.3184 24.1182C18.354 24.1465 18.3847 24.1711 18.4085 24.1915C18.4327 24.2108 18.4507 24.2264 18.458 24.2329C18.5645 24.3284 18.7288 24.3201 18.8255 24.2137C18.9218 24.1064 18.9132 23.9425 18.8067 23.8458C18.7763 23.8188 18.7407 23.7901 18.6924 23.7516C18.6101 23.6845 18.4966 23.5935 18.3717 23.487C18.1844 23.3285 17.9727 23.1352 17.8133 22.9505C17.7343 22.8579 17.6679 22.7686 17.6249 22.6924C17.595 22.6392 17.5786 22.5945 17.5704 22.5634C17.5962 22.5589 17.6298 22.556 17.6716 22.5539C17.7502 22.5499 17.8518 22.5494 17.9649 22.5434C18.1258 22.5351 18.3127 22.5163 18.5039 22.4462C18.6952 22.3774 18.8898 22.2513 19.0422 22.0501C19.129 21.9359 19.1073 21.7724 18.993 21.686C18.8787 21.5987 18.7152 21.6204 18.6284 21.7347Z" fill="#8C1D18" stroke="#8C1D18" stroke-width="0.002"/>
<path d="M17.4853 4.90576L17.4857 4.9066L17.4849 4.90454L17.4853 4.90576Z" fill="#8C1D18" stroke="#8C1D18" stroke-width="0.002"/>
<path d="M26.1665 8.98964C25.963 8.47805 25.643 8.00944 25.2375 7.64367C25.0344 7.46138 24.8075 7.30406 24.5555 7.18941C24.3057 7.07471 24.0263 7.00181 23.731 7.00102H23.722C23.4099 7.00102 23.0895 7.08741 22.8012 7.26399C22.3801 7.52124 21.9762 7.79405 21.5883 8.07994C21.6346 7.98408 21.6903 7.87678 21.7558 7.75964C21.8722 7.54744 22.0123 7.30083 22.1335 7.01292L22.1368 7.00716L22.1393 7.00106C22.193 6.8716 22.2196 6.73481 22.2204 6.59471C22.22 6.39277 22.1643 6.21417 22.0902 6.06549C21.962 5.81152 21.7781 5.61821 21.5827 5.45274C21.2869 5.20533 20.9371 5.00546 20.5799 4.85592C20.401 4.78139 20.2191 4.71952 20.0376 4.67527C20.0352 4.67485 20.0327 4.67405 20.0303 4.67325C19.8517 4.6298 19.6707 4.60158 19.4818 4.60116C19.3376 4.60158 19.1774 4.61836 19.01 4.68024C18.9256 4.71216 18.8371 4.75725 18.7531 4.82114C18.6679 4.88588 18.5893 4.96819 18.527 5.06691C18.4811 5.14064 18.4451 5.21025 18.4094 5.28075C18.3476 5.40403 18.2833 5.53964 18.2133 5.67483C18.1129 5.87147 17.9888 6.07219 17.8909 6.18113C17.7303 6.35808 17.5701 5.05552 17.4858 4.90683C17.3953 4.74544 17.2715 4.61067 17.1294 4.49274C16.8873 4.29281 16.6121 4.18467 16.343 4.11792C15.3935 3.88566 14.0106 3.93483 13.4097 4.83474C13.2881 5.02683 13.2147 5.22469 13.1656 5.40821C13.1172 5.5913 13.091 5.76703 13.0906 5.93869C13.0906 6.05911 13.0992 6.17053 13.1053 6.29175C13.1201 6.55556 13.1365 6.81403 13.082 7.06838C12.801 6.69197 12.6195 6.25078 12.3594 5.86083C12.2873 5.75105 12.1985 5.66958 12.1096 5.60728C11.9793 5.51761 11.8421 5.46478 11.709 5.4316C11.5755 5.39803 11.4374 5.38364 11.2957 5.38322C11.0507 5.38364 10.7878 5.42831 10.5174 5.52253C10.2471 5.61717 9.9673 5.76253 9.69575 5.96616C9.38239 6.20166 9.14727 6.44541 8.98344 6.70631C8.81998 6.96769 8.73233 7.24988 8.73233 7.53127C8.73275 7.74596 8.78558 7.94414 8.87122 8.1113C9.27219 8.89036 9.73878 9.75221 9.73756 10.6542V10.6578C9.73714 10.9286 9.68595 11.1452 9.58353 11.321L9.48195 11.4947L9.52911 11.5222C8.89334 12.5462 8.35967 13.8746 8.08602 15.6535C8.02747 16.0304 8 16.4166 8 16.8082C8.00042 18.0629 8.28345 19.3749 8.78525 20.6451C9.53975 22.5486 10.787 24.3644 12.3816 25.7271C13.18 26.4075 14.066 26.9748 15.0245 27.3729C15.9719 27.767 16.9906 27.9939 18.054 28H18.0852C18.6787 28 19.2845 27.9296 19.8965 27.7813L19.903 27.7797C19.903 27.7797 19.912 27.7772 19.914 27.7768C20.6886 27.5646 21.4067 27.1189 22.053 26.5221C23.0218 25.6238 23.841 24.3753 24.4296 22.9319C25.0174 21.4872 25.3717 19.8442 25.3721 18.1517C25.3721 16.3887 24.9785 14.5717 24.0483 12.909C24.113 12.855 24.1769 12.8005 24.2428 12.7481C24.7225 12.3639 25.2255 12.0174 25.6753 11.6475C25.923 11.4427 26.1074 11.1875 26.2229 10.9134C26.3384 10.6394 26.3851 10.3527 26.3851 10.0741C26.3845 9.69788 26.3009 9.33206 26.1665 8.98964ZM9.94958 7.30978C10.0188 7.19958 10.1499 7.04925 10.3792 6.87764C10.5595 6.74208 10.7348 6.65321 10.8925 6.59827C11.0506 6.54338 11.1911 6.52247 11.2955 6.52289C11.3623 6.52247 11.4127 6.53105 11.4413 6.5393C11.5352 6.68635 11.6388 6.86986 11.7469 7.0681C11.9288 7.39908 12.1201 7.76156 12.3372 8.06841C12.431 8.19989 12.5297 8.32111 12.6468 8.42967C12.3868 8.70455 12.0538 8.99574 11.6838 9.33286C11.416 9.57661 11.1297 9.84774 10.84 10.155C10.7741 9.68147 10.6282 9.22763 10.469 8.82539C10.3616 8.55422 10.247 8.30677 10.1429 8.09546C10.0393 7.88494 9.9463 7.70958 9.88527 7.5908C9.87791 7.57608 9.87172 7.55845 9.87172 7.52728C9.87214 7.48838 9.88114 7.42121 9.94958 7.30978ZM25.1724 10.4708C25.1236 10.5838 25.0557 10.6797 24.9496 10.7681C24.4244 11.2027 23.7007 11.6763 23.0105 12.2972C22.6652 12.6081 22.3281 12.9579 22.0299 13.3634C21.7317 13.7685 21.4732 14.2306 21.2889 14.759C21.2033 15.0043 21.3319 15.2714 21.5768 15.357C21.821 15.443 22.0888 15.314 22.1749 15.069C22.326 14.6369 22.5361 14.26 22.786 13.9192C22.8835 13.7865 22.9875 13.6595 23.0961 13.5375C23.8911 14.9915 24.232 16.5833 24.2323 18.1546C24.234 20.1928 23.6552 22.1909 22.7754 23.7425C22.3359 24.5183 21.8226 25.1823 21.2787 25.6849C20.7372 26.1867 20.1682 26.5246 19.6198 26.6753C19.0992 26.8011 18.5871 26.8597 18.0849 26.8597C16.8721 26.8597 15.7124 26.5173 14.6437 25.9241C13.043 25.0353 11.656 23.5779 10.6795 21.9255C8.95625 19.0164 8.63352 15.4741 10.2994 12.4593C11.0015 11.1912 11.8662 10.4326 12.6317 9.74035C13.0143 9.3938 13.3736 9.0653 13.6652 8.68233C13.811 8.49019 13.9388 8.28455 14.0362 8.05767C14.1346 7.83075 14.2018 7.58414 14.2271 7.31996C14.2509 7.08811 14.2582 6.88083 14.2582 6.69731C14.2582 5.94281 14.0727 5.36119 14.9898 5.20922C15.1565 5.18096 15.3404 5.16539 15.5199 5.16539C15.7198 5.16497 15.9139 5.18546 16.0708 5.22394C16.2284 5.26205 16.3448 5.3206 16.3997 5.36813C16.4443 5.40497 16.4689 5.43202 16.4811 5.44842C16.4984 5.47299 16.4934 5.46727 16.4975 5.47997C16.5008 5.49183 16.505 5.53036 16.5045 5.60569C16.5045 5.62824 16.5045 5.6528 16.5045 5.68106C16.5045 5.77116 16.5115 5.87686 16.5278 5.99808C16.6208 6.67969 17.0141 7.42027 17.8054 7.41703C17.9594 7.41783 18.1069 7.38178 18.2338 7.32525C18.4583 7.22531 18.625 7.07292 18.7635 6.91317C18.9703 6.67233 19.1198 6.40158 19.2419 6.16646C19.3017 6.04889 19.3545 5.93996 19.3976 5.8523C19.4185 5.80969 19.4377 5.772 19.454 5.7413L19.4827 5.74092C19.5835 5.73928 19.7641 5.77163 19.9566 5.83758C20.2475 5.93508 20.5723 6.10547 20.7955 6.28078C20.9069 6.3676 20.9925 6.45572 21.0372 6.51999C21.0585 6.54989 21.0704 6.57324 21.0756 6.58716C20.9589 6.86156 20.7918 7.13728 20.6345 7.43794C20.3346 8.01136 20.195 8.63231 20.4903 9.23363C19.6961 9.94927 18.9965 10.7283 18.4054 11.5557C17.2737 13.1418 16.5372 14.906 16.291 16.7324C16.257 16.9892 16.4368 17.2256 16.694 17.2596C16.9505 17.2944 17.1868 17.1146 17.2216 16.8578C17.4448 15.198 18.1167 13.5759 19.1698 12.1013C20.222 10.6263 21.6565 9.29958 23.3953 8.23669C23.5112 8.16666 23.6136 8.14125 23.7271 8.14041C23.8692 8.14041 24.0355 8.18831 24.2125 8.29481C24.4771 8.45213 24.7491 8.7376 24.9404 9.06863C25.135 9.39877 25.2472 9.76983 25.2452 10.0738C25.2453 10.2246 25.2199 10.3573 25.1724 10.4708Z" fill="#8C1D18"/>
<path d="M20.0376 4.67527C20.2191 4.71952 20.401 4.78139 20.5799 4.85592C20.9371 5.00546 21.2869 5.20533 21.5827 5.45274C21.7781 5.61821 21.962 5.81152 22.0902 6.06549C22.1643 6.21417 22.22 6.39277 22.2204 6.59471C22.2196 6.73481 22.193 6.8716 22.1393 7.00106L22.1368 7.00716L22.1335 7.01292C22.0123 7.30083 21.8722 7.54744 21.7558 7.75964C21.6903 7.87678 21.6346 7.98408 21.5883 8.07994C21.9762 7.79405 22.3801 7.52124 22.8012 7.26399C23.0895 7.08741 23.4099 7.00102 23.722 7.00102H23.731C24.0263 7.00181 24.3057 7.07471 24.5555 7.18941C24.8075 7.30406 25.0344 7.46138 25.2375 7.64367C25.643 8.00944 25.963 8.47805 26.1665 8.98964C26.3009 9.33206 26.3845 9.69788 26.3851 10.0741C26.3851 10.3527 26.3384 10.6394 26.2229 10.9134C26.1074 11.1875 25.923 11.4427 25.6753 11.6475C25.2255 12.0174 24.7225 12.3639 24.2428 12.7481C24.1769 12.8005 24.113 12.855 24.0483 12.909C24.9785 14.5717 25.3721 16.3887 25.3721 18.1517C25.3717 19.8442 25.0174 21.4872 24.4296 22.9319C23.841 24.3753 23.0218 25.6238 22.053 26.5221C21.4067 27.1189 20.6886 27.5646 19.914 27.7768C19.912 27.7772 19.903 27.7797 19.903 27.7797L19.8965 27.7813C19.2845 27.9296 18.6787 28 18.0852 28H18.054C16.9906 27.9939 15.9719 27.767 15.0245 27.3729C14.066 26.9748 13.18 26.4075 12.3816 25.7271C10.787 24.3644 9.53975 22.5486 8.78525 20.6451C8.28345 19.3749 8.00042 18.0629 8 16.8082C8 16.4166 8.02747 16.0304 8.08602 15.6535C8.35967 13.8746 8.89334 12.5462 9.52911 11.5222L9.48195 11.4947L9.58353 11.321C9.68595 11.1452 9.73714 10.9286 9.73756 10.6578V10.6542C9.73878 9.75221 9.27219 8.89036 8.87122 8.1113C8.78558 7.94414 8.73275 7.74596 8.73233 7.53127C8.73233 7.24988 8.81998 6.96769 8.98344 6.70631C9.14727 6.44541 9.38239 6.20166 9.69575 5.96616C9.9673 5.76253 10.2471 5.61717 10.5174 5.52253C10.7878 5.42831 11.0507 5.38364 11.2957 5.38322C11.4374 5.38364 11.5755 5.39803 11.709 5.4316C11.8421 5.46478 11.9793 5.51761 12.1096 5.60728C12.1985 5.66958 12.2873 5.75105 12.3594 5.86083C12.6195 6.25078 12.801 6.69197 13.082 7.06838C13.1365 6.81403 13.1201 6.55556 13.1053 6.29175C13.0992 6.17053 13.0906 6.05911 13.0906 5.93869C13.091 5.76703 13.1172 5.5913 13.1656 5.40821C13.2147 5.22469 13.2881 5.02683 13.4097 4.83474M20.0376 4.67527L20.0323 4.67363M20.0376 4.67527C20.0352 4.67485 20.0327 4.67405 20.0303 4.67325C19.8517 4.6298 19.6707 4.60158 19.4818 4.60116C19.3376 4.60158 19.1774 4.61836 19.01 4.68024C18.9256 4.71216 18.8371 4.75725 18.7531 4.82114C18.6679 4.88588 18.5893 4.96819 18.527 5.06691C18.4811 5.14064 18.4451 5.21025 18.4094 5.28075C18.3476 5.40403 18.2833 5.53964 18.2133 5.67483M18.2133 5.67483L18.2108 5.67975M18.2133 5.67483C18.1129 5.87147 17.9888 6.07219 17.8909 6.18113C17.7303 6.35808 17.5701 5.05552 17.4858 4.90683C17.3953 4.74544 17.2715 4.61067 17.1294 4.49274C16.8873 4.29281 16.6121 4.18467 16.343 4.11792C15.3935 3.88566 14.0106 3.93483 13.4097 4.83474M13.4097 4.83474L13.4089 4.836M9.94958 7.30978C10.0188 7.19958 10.1499 7.04925 10.3792 6.87764C10.5595 6.74208 10.7348 6.65321 10.8925 6.59827C11.0506 6.54338 11.1911 6.52247 11.2955 6.52289C11.3623 6.52247 11.4127 6.53105 11.4413 6.5393C11.5352 6.68635 11.6388 6.86986 11.7469 7.0681C11.9288 7.39908 12.1201 7.76156 12.3372 8.06841C12.431 8.19989 12.5297 8.32111 12.6468 8.42967C12.3868 8.70455 12.0538 8.99574 11.6838 9.33286C11.416 9.57661 11.1297 9.84774 10.84 10.155C10.7741 9.68147 10.6282 9.22763 10.469 8.82539C10.3616 8.55422 10.247 8.30677 10.1429 8.09546C10.0393 7.88494 9.9463 7.70958 9.88527 7.5908C9.87791 7.57608 9.87172 7.55846 9.87172 7.52728C9.87214 7.48838 9.88114 7.42121 9.94958 7.30978ZM25.1724 10.4708C25.1236 10.5838 25.0557 10.6797 24.9496 10.7681C24.4244 11.2027 23.7007 11.6763 23.0105 12.2972C22.6652 12.6081 22.3281 12.9579 22.0299 13.3634C21.7317 13.7685 21.4732 14.2306 21.2889 14.759C21.2033 15.0043 21.3319 15.2714 21.5768 15.357C21.821 15.443 22.0888 15.314 22.1749 15.069C22.326 14.6369 22.5361 14.26 22.786 13.9192C22.8835 13.7865 22.9875 13.6595 23.0961 13.5375C23.8911 14.9915 24.232 16.5833 24.2323 18.1546C24.234 20.1928 23.6552 22.1909 22.7754 23.7425C22.3359 24.5183 21.8226 25.1823 21.2787 25.6849C20.7372 26.1867 20.1682 26.5246 19.6198 26.6753C19.0992 26.8011 18.5871 26.8597 18.0849 26.8597C16.8721 26.8597 15.7124 26.5173 14.6437 25.9241C13.043 25.0353 11.656 23.5779 10.6795 21.9255C8.95625 19.0164 8.63352 15.4741 10.2994 12.4593C11.0015 11.1912 11.8662 10.4326 12.6317 9.74035C13.0143 9.3938 13.3736 9.0653 13.6652 8.68233C13.811 8.49019 13.9388 8.28455 14.0362 8.05767C14.1346 7.83075 14.2018 7.58414 14.2271 7.31996C14.2509 7.08811 14.2582 6.88083 14.2582 6.69731C14.2582 5.94281 14.0727 5.36119 14.9898 5.20922C15.1565 5.18096 15.3404 5.16539 15.5199 5.16539C15.7198 5.16497 15.9139 5.18546 16.0708 5.22394C16.2284 5.26205 16.3448 5.3206 16.3997 5.36813C16.4443 5.40497 16.4689 5.43202 16.4811 5.44842C16.4984 5.47299 16.4934 5.46727 16.4975 5.47997C16.5008 5.49183 16.505 5.53036 16.5045 5.60569C16.5045 5.62824 16.5045 5.6528 16.5045 5.68106C16.5045 5.77116 16.5115 5.87686 16.5278 5.99808C16.6208 6.67969 17.0141 7.42027 17.8054 7.41703C17.9594 7.41783 18.1069 7.38178 18.2338 7.32525C18.4583 7.22531 18.625 7.07292 18.7635 6.91317C18.9703 6.67233 19.1198 6.40158 19.2419 6.16646C19.3017 6.04889 19.3545 5.93996 19.3976 5.8523C19.4185 5.80969 19.4377 5.772 19.454 5.7413L19.4827 5.74092C19.5835 5.73928 19.7641 5.77163 19.9566 5.83758C20.2475 5.93508 20.5723 6.10547 20.7955 6.28078C20.9069 6.3676 20.9925 6.45572 21.0372 6.51999C21.0585 6.54989 21.0704 6.57324 21.0756 6.58716C20.9589 6.86156 20.7918 7.13728 20.6345 7.43794C20.3346 8.01136 20.195 8.63231 20.4903 9.23363C19.6961 9.94927 18.9965 10.7283 18.4054 11.5557C17.2737 13.1418 16.5372 14.906 16.291 16.7324C16.257 16.9892 16.4368 17.2256 16.694 17.2596C16.9505 17.2944 17.1868 17.1146 17.2216 16.8578C17.4448 15.198 18.1167 13.5759 19.1698 12.1013C20.222 10.6263 21.6565 9.29958 23.3953 8.23669C23.5112 8.16666 23.6136 8.14125 23.7271 8.14041C23.8692 8.14041 24.0355 8.18831 24.2125 8.29481C24.4771 8.45213 24.7491 8.7376 24.9404 9.06863C25.135 9.39877 25.2472 9.76983 25.2452 10.0738C25.2453 10.2246 25.2199 10.3573 25.1724 10.4708Z" stroke="#8C1D18" stroke-width="0.002"/>
<path d="M25.2444 7.64902L25.2383 7.64368C25.2383 7.64368 25.2387 7.64447 25.2391 7.64447L25.2444 7.64902Z" fill="#8C1D18" stroke="#8C1D18" stroke-width="0.002"/>
</svg>
