<svg width="33" height="32" viewBox="0 0 33 32" fill="none" xmlns="http://www.w3.org/2000/svg">
<circle cx="16.5" cy="16" r="16" fill="#F54749" fill-opacity="0.2"/>
<circle cx="16.5" cy="16" r="15.5" stroke="#F54749" stroke-opacity="0.6"/>
<g clip-path="url(#clip0_359_771)">
<path d="M10.5 15C12.1569 15 13.5 13.6569 13.5 12C13.5 10.3431 12.1569 9 10.5 9C8.84315 9 7.5 10.3431 7.5 12C7.5 13.6569 8.84315 15 10.5 15Z" stroke="#8C1D18" stroke-width="1.44"/>
<path d="M10.5 24C12.1569 24 13.5 22.6569 13.5 21C13.5 19.3431 12.1569 18 10.5 18C8.84315 18 7.5 19.3431 7.5 21C7.5 22.6569 8.84315 24 10.5 24Z" stroke="#8C1D18" stroke-width="1.44"/>
<path d="M12.3 18.6L25.5 12" stroke="#8C1D18" stroke-width="1.44"/>
<path d="M12.3 14.4L25.5 21" stroke="#8C1D18" stroke-width="1.44"/>
</g>
<defs>
<clipPath id="clip0_359_771">
<rect width="24" height="24" fill="white" transform="translate(4.5 4)"/>
</clipPath>
</defs>
</svg>
